<?xml version="1.0" encoding="utf-8"?>
<!-- Generator: Adobe Illustrator 27.5.0, SVG Export Plug-In . SVG Version: 6.00 Build 0)  -->
<svg version="1.1" xmlns="http://www.w3.org/2000/svg" xmlns:xlink="http://www.w3.org/1999/xlink" x="0px" y="0px"
	 viewBox="0 0 1122 1122" style="enable-background:new 0 0 1122 1122;" xml:space="preserve">
<g id="Background">
	<rect style="fill:#FDFFFF;" width="1122" height="1122"/>
</g>
<g id="object">
	<g>
		<g>
			<path id="XMLID_821_" style="fill:#537082;" d="M520.566,753.418c-1.888-34.497,2.077-69.681,1.731-104.392
				c1.242-12.032-0.771-24.287-5.887-35.599c-0.318-0.702-0.662-1.421-1.294-1.958c-1.962-1.669-5.318-0.782-7.921,0.105
				c-24.964,8.505-54.45,6.502-77.211-5.505c-4.496,5.66-5.786,12.603-6.896,19.311c-1.793,10.845-3.758,21.668-4.239,32.56
				l-0.005,0.062l0.002,0c-0.102,2.339-0.16,4.68-0.105,7.027c0.313,13.577,3.485,26.955,5.963,40.338
				c1.617,8.73,3.038,17.52,3.174,26.364c0.111,7.239-1.118,13.855,0.842,20.942c4.826,17.453,4.838,36.467,6.879,54.298
				c2.185,19.095,4.343,38.194,6.129,57.318c0.071,0.761,0.142,1.523,0.212,2.285c1.165,0.257,18.964,3.643,18.964-0.166
				c1.427-37.12,2.854-74.24,4.281-111.359c0.6-15.62-0.766-68.391,4.026-83.273c1.975,0.163,3.949,0.327,5.924,0.49
				c10.852,49.121,23.711,135.164,34.563,184.285c0.956,4.325,2.115,8.992,5.564,11.779c3.449,2.787,9.891,2.006,10.911-2.305
				C522.986,828.492,522.621,790.971,520.566,753.418z"/>
			<path id="XMLID_820_" style="fill:#D0C5C2;" d="M488.833,421.705c0-11.634-11.128-21.065-24.854-21.065
				c-13.727,0-24.854,9.431-24.854,21.065c0,1.943,0.336,3.815,0.916,5.602c0.021,0.457,0.032,0.925,0.024,1.414
				c-0.072,4.197,0.137,8.422,1.038,12.563c1.753,8.056,6.327,15.549,14.982,20.132c2.883,1.526,6.193,2.689,9.639,2.666
				c4.634-0.03,8.885-2.202,12.105-4.897c10.635-8.903,11.552-22.284,10.801-34.913
				C488.751,423.428,488.833,422.575,488.833,421.705z"/>
			<path id="XMLID_819_" style="fill:#3D322B;" d="M461.609,866.74c-5.472-0.391-10.998-0.185-16.414,0.614
				c-4.175,2.758-8.749,5.039-13.574,6.771c-1.401,0.503-2.876,0.99-3.911,1.968c-1.034,0.978-1.453,2.622-0.487,3.654
				c0.845,0.901,2.339,0.998,3.66,1.011c10.114,0.095,20.237-0.669,30.188-2.278c0.596-0.096,1.231-0.213,1.661-0.592
				c0.344-0.303,0.506-0.73,0.632-1.145C464.381,873.387,463.727,869.662,461.609,866.74z"/>
			<path id="XMLID_818_" style="fill:#3D322B;" d="M525.244,867.461c-4.931,0.062-9.84,0.664-14.582,1.789
				c-3.404,2.787-7.221,5.178-11.326,7.094c-1.192,0.556-2.452,1.104-3.261,2.059c-0.809,0.955-0.99,2.461-0.007,3.312
				c0.86,0.744,2.205,0.719,3.385,0.63c9.04-0.678,17.989-2.127,26.684-4.319c0.521-0.131,1.074-0.284,1.414-0.656
				c0.272-0.297,0.366-0.693,0.43-1.075C528.497,873.211,527.477,869.92,525.244,867.461z"/>
			<path id="XMLID_817_" style="fill:#D3E4EA;" d="M523.313,634.112c-0.084-23.756-0.169-47.513-0.253-71.269
				c-0.071-20.017-4.631-41.256-7.601-61.026c-1.634-10.879-3.56-14.661-8.496-24.363c-0.703-1.382-0.822-2.314-7.358-4.418
				c-1.42-0.457-4.793-2.374-6.533-2.08c-8.535,1.442-17.223-1.792-25.758-0.35c-9.032,1.526-24.179-3.045-31.218,3.13
				c-9.513,8.345-10.174,28.171-11.686,41.141c-2.04,17.496-6.883,35.242-7.738,52.844c-0.751,15.448-1.158,30.912-1.442,46.377
				c-0.148,8.063-3.09,36.094,4.152,41.487c4.235,3.154,15.573,4.441,27.239,4.829c0.42,0.014,0.839,0.028,1.259,0.04
				c0.112,0.003,0.224,0.005,0.336,0.008c4.752,0.125,9.499,0.11,13.801,0.016c6.351-0.138,11.725-0.443,14.64-0.71
				c13.608-1.241,27.049-4.014,40.38-7.079c2.369-0.545,4.983-1.273,6.278-3.439C524.244,647.695,523.319,635.953,523.313,634.112z"
				/>
			<path id="XMLID_813_" style="fill:#333333;" d="M495.025,424.768c-0.26-3.393-0.817-6.666-1.681-9.953
				c-0.005-0.019-0.014-0.035-0.02-0.053c-0.556-3.343-1.102-6.688-1.642-10.033c-0.148-0.916-0.691-1.738-1.664-1.924
				c-3.716-0.712-7.442-1.252-11.188-1.66c-2.515-1.332-5.723-1.961-8.526-1.693c-2.014-0.274-4.094-0.193-5.828,0.035
				c-1.046,0.138-2.202,0.364-3.302,0.715c-1.941-0.034-3.878,0.048-5.82,0.239c-4.161-3.9-13.787-2.77-16.643,2.019
				c-0.582,0.976-0.885,1.9-0.976,2.777c-3.778,0.941-7.464,3.211-8.601,7.101c-0.562,1.922-0.323,4.013,0.868,5.643
				c0.669,0.915,1.659,1.408,2.662,1.856c0.388,0.5,0.864,0.967,1.378,1.403c0.428,0.741,1.072,1.386,1.99,1.887
				c0.376,0.205,0.745,0.277,1.09,0.248c0.262,0.159,0.513,0.311,0.737,0.448c1.675,1.025,3.277-0.902,2.913-2.488l-0.001-0.004
				c0.213-0.458,0.28-0.99,0.158-1.49c0.709-0.837,1.366-1.799,2.035-2.523c0.783-0.383,1.551-0.796,2.389-1.16
				c0.083-0.036,0.165-0.064,0.247-0.097c0.126-0.037,0.243-0.082,0.347-0.136c1.238-0.433,2.419-0.514,3.584-0.375
				c0.113,0.035,0.23,0.072,0.339,0.104c0.933,0.276,1.877,0.519,2.832,0.735c0.585,0.222,1.174,0.47,1.773,0.731
				c0.603,0.263,1.235,0.189,1.772-0.077c5.592,0.856,11.423,0.889,17.098,0.572c2.594,2.293,7.292,1.712,9.884-0.482
				c0.017-0.014,0.028-0.03,0.044-0.044c0.067,0.97-0.152,2.003-0.717,2.941c-0.335,0.557-0.324,1.546,0.102,2.062
				c1.158,1.4,1.685,2.945,1.603,4.761c-0.066,1.455,1.547,2.115,2.715,1.855c0.372-0.083,0.331,1.133,0.191,2.381
				c-0.144-0.315-0.475-0.546-0.932-0.408c-2.586,0.778-5.18,1.595-7.796,2.31c-0.255-0.859-0.798-1.567-1.79-1.956
				c-1.42-0.558-3.27-0.345-4.755-0.342c-3.053,0.007-6.109,0.048-9.162,0.001c-0.4-0.006-0.65,0.204-0.755,0.469
				c-0.432,0.009-0.865,0.005-1.298,0.015c-0.486,0.012-0.894,0.349-0.897,0.782c-0.006,1.043-0.021,2.083,0.029,3.125
				c-0.562-0.035-1.121-0.077-1.647-0.089c-1.196-0.026-2.391-0.038-3.587-0.023c-0.03-0.594-0.078-1.171-0.125-1.69
				c0.029-0.475,0.089-0.945,0.099-1.425c0.009-0.427-0.404-0.79-0.867-0.79h-0.205c-0.053-0.009-0.1-0.03-0.156-0.033
				c-2.738-0.131-5.474-0.288-8.211-0.437c-1.906-0.104-4.463-0.702-6.262-0.093c-2.594,0.878-2.211,3.936-1.887,6.432
				c-0.244,1.083-0.293,2.117,0.247,2.761c0.429,0.512,1.065,0.576,1.687,0.684c2.018,0.349,4.42,0.044,6.477,0.051
				c2.01,0.006,6.401,0.894,8.079-0.524c0.773-0.653,1.054-1.869,1.13-3.186c0.04,0.001,0.081,0.007,0.121,0.009
				c0.044,0.257,0.219,0.485,0.58,0.552c1.559,0.287,3.131,0.376,4.711,0.3c0.362,1.23,1.243,2.289,2.859,2.853
				c2.143,0.749,5.04,0.17,7.316,0.274c1.287,0.059,2.506,0.024,3.586-0.381c0.924-0.107,1.846-0.234,2.765-0.395
				c0.229-0.04,0.41-0.2,0.523-0.391c0.271-0.052,0.518-0.216,0.614-0.508c0.394-1.191,0.959-2.981,0.963-4.598
				c2.666-0.818,5.37-1.561,8.055-2.305c0.179-0.05,0.298-0.143,0.392-0.251c-0.119,0.846-0.254,1.573-0.297,1.738
				c-0.505,1.925-1.375,3.577-2.436,5.238c-0.435,0.68-0.239,2.007,0.451,2.486c0.488,0.339,0.955,0.594,1.403,0.778
				c-0.637,2.973-2.16,5.8-3.74,8.512c-1.75,3.003-6.182,5.646-8.895,8.018c-2.713,2.373-6.42,4.056-10.219,3.81
				c-0.497-0.032-1.004-0.1-1.439-0.317c-0.93-0.463-1.301-1.465-1.575-2.38c-0.274-0.915-0.597-1.918-1.488-2.438
				c-0.892-0.519-2.462-0.038-2.347,0.903c0.074,0.608,0.791,1.057,0.796,1.669c0.006,0.702-0.994,1.127-1.755,0.934
				c-0.761-0.193-1.305-0.772-1.798-1.321c-1.186-1.318-2.371-2.636-3.557-3.955c-0.503-0.56-1.073-1.017-1.798-0.708
				c0.963,2.08,2.908,4.069,4.313,5.959c1.154,1.552,2.352,3.144,4.082,4.194c2.065,1.252,4.663,1.589,7.164,1.633
				c3.04,0.052,6.24-0.331,8.686-1.934c1.752-1.147,6.05-4.609,7.148-6.277c3.692-5.605,6.04-9.472,7.999-15.727
				c0.022-0.07,0.043-0.14,0.064-0.21c3.218,0.072,5.153-3.925,5.962-7.338c0.663-2.8,0.958-5.836,0.413-8.56
				C494.735,426.255,495.093,425.651,495.025,424.768z M452.25,437.294c-0.055,0.134-0.124,0.257-0.197,0.377
				c-2.596,0.287-5.312,0.618-7.896,0.493c-1.29-0.062-2.296-0.311-3.021-0.864c0.001-0.014,0.008-0.023,0.009-0.037
				c0.015-1.527,0.029-3.053,0.044-4.58c1.713-0.005,3.426-0.01,5.138-0.015c2.023,0.061,4.046,0.119,6.069,0.19
				c0.083,0.754,0.178,1.621,0.174,2.455C452.491,435.973,452.372,436.633,452.25,437.294z M475.309,435.737
				c-0.347,1.443-0.811,2.481-2.153,3.075c-2.289,0.26-4.597,0.331-6.906,0.137c-1.922-0.161-2.58-0.159-2.754-1.953
				c-0.029-0.302-0.042-0.612-0.053-0.924c0.107-0.229,0.102-0.503-0.011-0.729c0.001-0.765,0.038-1.534,0.095-2.286
				c3.757-0.012,7.511,0.021,11.267,0.037c0.273,0.182,0.458,0.406,0.564,0.674c0.005,0.55,0.011,1.099,0.016,1.649
				C475.352,435.524,475.336,435.623,475.309,435.737z"/>
			<path id="XMLID_812_" style="fill:#E0C74E;" d="M527.066,587.9c-0.202-11.935-0.616-23.867-1.27-35.788
				c-0.854-15.57-1.361-31.567-3.936-46.965c-1.623-9.707-4.983-20.008-13.167-25.72c-2.04-4.633-4.998-8.556-9.49-10.741
				c-1.38-2.249-4.05-2.544-6.164-1.488c-1.666-0.947-3.877-1.072-5.686,0.478c-7.268,6.225-11.329,14.935-13.865,24.004
				c-2.755,9.853-4.38,20.479-4.822,30.688c-0.711,16.404,4.45,32.762,13.911,46.085c0.088,1.917,0.163,3.834,0.211,5.752
				c0.896,35.519-9.549,69.707-19.954,103.273c-1.169,3.77,3.17,6.858,6.512,5.821c1.23-0.382,2.467-0.73,3.702-1.087
				c0.447,0.138,0.919,0.245,1.443,0.277c1.021,0.063,2.042,0.106,3.063,0.136c1.719,1.166,3.995,1.369,5.661-0.009
				c8.391-0.269,16.699-1.675,24.705-4.177l6.766-0.82c0.759-0.092,1.515-0.344,2.196-0.723c2.403,0.312,5.077-0.931,5.779-3.818
				C529.543,644.79,530.125,616.263,527.066,587.9z"/>
			<path id="XMLID_811_" style="fill:#E0C74E;" d="M439.707,468.672c-12.18,15.226-18.358,33.432-21.43,52.307
				c-7.687,30.165-8.236,62.281-6.957,93.589c-0.018,0.204-0.027,0.413-0.019,0.632l0.87,25.68
				c0.268,7.915-0.01,16.097,1.685,23.873c2.579,11.831,15.235,23.174,27.361,15.488c1.816-1.151,2.382-3.293,1.884-5.277
				c-12.66-50.47-14.84-103.468-6.369-154.811c2.391-14.489,5.637-28.819,9.657-42.941c0.259-0.909,0.245-1.713,0.04-2.404
				C450.064,470.25,443.368,464.096,439.707,468.672z"/>
			<path id="XMLID_810_" style="fill:#909294;" d="M437.936,509.772c-2.487-4.074-5.407-7.738-8.34-11.484
				c-2.615-3.339-2.885-7.882-6.46-10.512c-3.513-2.584-8.042-2.603-12.204-2.22c-0.783,0.072-1.484,0.348-2.065,0.762
				c-0.396,0.193-0.761,0.441-1.075,0.74c-1.263,0.278-2.54,0.697-3.833,1.215c-2.588,1.039-3.353,3.587-2.142,5.996
				c5.64,11.209,11.508,22.376,20.564,31.255c1.203,1.18,2.776,1.25,4.113,0.687c0.75,0.284,1.575,0.449,2.5,0.449
				c2.354,0.002,4.779-0.446,7.098-0.833c2.385-0.398,4.596-0.841,5.831-3.166C444.113,518.54,440.011,513.17,437.936,509.772z"/>
			<path id="XMLID_809_" style="fill:#606060;" d="M444.479,518.243c-7.272-10.513-14.448-21.093-21.668-31.641
				c-0.954-1.394-2.545-1.358-3.634-0.626c-3.79-0.173-7.581-0.214-11.374-0.073c-2.046,0.076-4.291,0.011-5.332,2.047
				c-0.314,0.615,0.179,1.246,0.82,1.255c4.781,0.065,9.562,0.125,14.343,0.188c0.212,0.371,0.65,0.423,1.01,0.257
				c7.158,10.463,14.36,20.898,21.466,31.397C441.986,523.817,446.38,520.991,444.479,518.243z"/>
			<path id="XMLID_808_" style="fill:#E0C74E;" d="M484.085,555.599c-5.662-3.873-11.477-7.525-17.448-10.897
				c-4.404-4.766-9.502-8.875-15.182-12.207c-1.826-1.071-3.519-0.703-4.708,0.341c-0.279,0.043-0.554,0.106-0.819,0.203
				c-0.888-0.589-1.776-1.051-2.615-1.287c-0.004,0.002-0.007,0.004-0.01,0.006c-0.557,0.265-1.099,0.546-1.624,0.872
				c-0.075,0.047-0.431,0.291-0.701,0.473c-0.266,0.219-0.802,0.641-0.799,0.638c-0.238,0.203-0.473,0.409-0.708,0.615
				c-0.069,2.139,1.184,5.087,2.501,7.484l3.52,6.409c0.127,0.281,0.269,0.562,0.445,0.843c0.049,0.079,0.099,0.159,0.149,0.238
				l5.603,10.203c0.373,0.138,0.75,0.323,1.129,0.553c1.205,1.836,2.454,3.648,3.763,5.397c1.985,5.709,6.405,10.407,12.015,13.606
				c7.155,4.08,20.212,10.003,25.48,0.332C499.211,569.99,491.466,560.648,484.085,555.599z"/>
			<path id="XMLID_755_" style="fill:#E0C74E;" d="M507.588,493.253c-1.066-2.048-3.672-2.831-5.73-2.116
				c-1.63-0.054-3.403,0.284-5.325,1.132c-10.986,4.847-13.489,18.717-15.829,29.13c-3.316,14.758-5.499,29.936-3.164,45.013
				c0.271,1.753,1.309,2.878,2.586,3.426c-0.089,1.671-0.111,3.347-0.072,5.035c0.064,2.77,2.062,4,4.166,3.927
				c0.797,0.367,1.531,0.542,2.209,0.561c0.868,0.718,1.987,1.114,3.258,0.962c13.618-1.638,12.633-19.2,14.802-29.26
				c1.427-6.62,3.426-13.001,5.832-19.325c2.258-5.935,4.594-12.001,4.953-18.404C515.635,506.905,513.041,497.443,507.588,493.253z
				"/>
			<path id="XMLID_754_" style="fill:#D0C5C2;" d="M439.853,535.55c0.423-0.096,0.842-0.243,1.253-0.462
				c1.85-0.988,2.606-2.898,2.945-4.859c0.491-2.835,0.198-5.758,0.011-8.645c-1.155-1.874-2.513-3.568-4.41-4.76
				c-0.342,0.412-0.683,0.824-1.024,1.236l1.012,2.615c-1.611-1.768-3.48-3.326-5.517-4.599c-1.978-1.236-4.712-2.154-6.185-0.758
				c-1.453,1.378-0.584,3.952,0.508,5.914C431.39,526.519,435.419,531.186,439.853,535.55z"/>
		</g>
		<g>
			<defs>
				<ellipse id="SVGID_1_" cx="471.782" cy="435.931" rx="218.523" ry="195.006"/>
			</defs>
			<clipPath id="SVGID_00000083797137628617315000000006937352530693335969_">
				<use xlink:href="#SVGID_1_"  style="overflow:visible;"/>
			</clipPath>
			<g style="clip-path:url(#SVGID_00000083797137628617315000000006937352530693335969_);">
				<path id="XMLID_753_" style="fill:#537082;" d="M542.596,768.583c-2.628-48.035,2.892-97.025,2.411-145.358
					c1.729-16.754-1.074-33.818-8.198-49.569c-0.442-0.977-0.922-1.978-1.802-2.727c-2.732-2.324-7.405-1.088-11.03,0.146
					c-34.761,11.842-75.818,9.053-107.51-7.665c-6.26,7.881-8.057,17.549-9.602,26.889c-2.497,15.101-5.233,30.171-5.903,45.338
					c-0.002,0.029-0.006,0.057-0.006,0.057l0.002,0.028c-0.142,3.257-0.222,6.517-0.147,9.784
					c0.436,18.905,4.852,37.533,8.303,56.167c2.251,12.156,4.231,24.395,4.419,36.71c0.154,10.079-1.556,19.292,1.172,29.16
					c6.719,24.302,6.737,50.777,9.578,75.606c3.043,26.589,6.047,53.182,8.535,79.811c0.099,1.06,0.197,2.121,0.295,3.181
					c1.623,0.358,26.406,5.073,26.406-0.231c1.987-51.686,3.974-103.373,5.962-155.059c0.836-21.75-1.066-95.23,5.605-115.952
					c2.75,0.227,5.499,0.455,8.249,0.682c15.111,68.397,33.015,188.206,48.127,256.603c1.331,6.023,2.945,12.52,7.748,16.401
					c4.803,3.881,13.773,2.794,15.192-3.209C545.966,873.118,545.458,820.873,542.596,768.583z"/>
				<path id="XMLID_752_" style="fill:#D0C5C2;" d="M498.41,306.698c0-16.2-15.494-29.332-34.608-29.332
					c-19.113,0-34.608,13.133-34.608,29.332c0,2.705,0.467,5.313,1.276,7.8c0.03,0.636,0.045,1.288,0.033,1.969
					c-0.1,5.843,0.191,11.727,1.445,17.492c2.441,11.217,8.81,21.651,20.862,28.032c4.014,2.125,8.624,3.744,13.421,3.712
					c6.452-0.042,12.372-3.066,16.855-6.819c14.808-12.397,16.085-31.029,15.04-48.613
					C498.296,309.097,498.41,307.909,498.41,306.698z"/>
				<path id="XMLID_751_" style="fill:#3D322B;" d="M460.503,926.376c-7.619-0.545-15.314-0.257-22.855,0.855
					c-5.813,3.84-12.182,7.017-18.901,9.427c-1.951,0.7-4.005,1.378-5.445,2.74c-1.44,1.362-2.023,3.651-0.677,5.087
					c1.176,1.255,3.256,1.39,5.096,1.407c14.083,0.132,28.179-0.932,42.035-3.171c0.831-0.134,1.714-0.297,2.313-0.824
					c0.48-0.422,0.704-1.016,0.88-1.595C464.363,935.632,463.452,930.445,460.503,926.376z"/>
				<path id="XMLID_750_" style="fill:#3D322B;" d="M549.11,927.379c-6.866,0.086-13.702,0.925-20.304,2.491
					c-4.74,3.881-10.054,7.21-15.77,9.878c-1.66,0.775-3.414,1.538-4.541,2.868c-1.126,1.329-1.379,3.426-0.009,4.612
					c1.197,1.036,3.07,1,4.714,0.877c12.588-0.944,25.049-2.961,37.156-6.014c0.726-0.183,1.495-0.395,1.969-0.913
					c0.379-0.414,0.51-0.964,0.599-1.496C553.639,935.385,552.219,930.804,549.11,927.379z"/>
				<path id="XMLID_749_" style="fill:#D3E4EA;" d="M546.42,602.459c-0.117-33.079-0.235-66.158-0.353-99.237
					c-0.099-27.873-6.448-57.446-10.583-84.974c-2.276-15.148-4.958-20.415-11.83-33.923c-0.979-1.925-1.144-3.222-10.245-6.151
					c-1.978-0.637-6.674-3.305-9.097-2.896c-11.885,2.008-23.981-2.495-35.866-0.487c-12.576,2.124-33.668-4.239-43.469,4.359
					c-13.246,11.62-14.166,39.226-16.272,57.285c-2.841,24.361-9.584,49.072-10.775,73.582c-1.045,21.51-1.612,43.043-2.008,64.577
					c-0.207,11.227-4.303,50.258,5.781,57.768c5.897,4.392,21.684,6.183,37.928,6.724c0.585,0.019,1.168,0.039,1.754,0.055
					c0.156,0.004,0.311,0.007,0.467,0.011c6.616,0.174,13.226,0.153,19.217,0.022c8.844-0.193,16.326-0.618,20.385-0.988
					c18.948-1.729,37.664-5.589,56.227-9.857c3.298-0.758,6.938-1.773,8.742-4.789C547.717,621.372,546.429,605.023,546.42,602.459z
					"/>
				<path id="XMLID_741_" style="fill:#333333;" d="M507.032,310.962c-0.362-4.724-1.137-9.282-2.34-13.859
					c-0.007-0.026-0.02-0.048-0.028-0.074c-0.774-4.655-1.534-9.312-2.286-13.971c-0.206-1.275-0.962-2.42-2.317-2.679
					c-5.174-0.991-10.362-1.743-15.579-2.311c-3.502-1.855-7.969-2.731-11.872-2.358c-2.804-0.382-5.701-0.269-8.115,0.049
					c-1.456,0.192-3.066,0.507-4.597,0.995c-2.703-0.047-5.399,0.067-8.104,0.333c-5.794-5.43-19.197-3.857-23.174,2.811
					c-0.81,1.358-1.233,2.646-1.359,3.866c-5.26,1.311-10.393,4.471-11.976,9.887c-0.782,2.676-0.45,5.588,1.209,7.858
					c0.931,1.274,2.31,1.96,3.706,2.584c0.54,0.696,1.203,1.347,1.919,1.954c0.596,1.031,1.493,1.93,2.771,2.628
					c0.523,0.286,1.038,0.386,1.518,0.345c0.364,0.222,0.714,0.433,1.027,0.624c2.332,1.428,4.563-1.255,4.057-3.465l-0.001-0.005
					c0.296-0.638,0.391-1.379,0.219-2.075c0.988-1.166,1.903-2.505,2.834-3.514c1.091-0.533,2.16-1.108,3.327-1.616
					c0.116-0.05,0.23-0.089,0.345-0.135c0.176-0.052,0.338-0.114,0.484-0.19c1.723-0.602,3.369-0.716,4.99-0.522
					c0.157,0.048,0.32,0.1,0.471,0.145c1.299,0.384,2.614,0.723,3.944,1.024c0.815,0.309,1.635,0.654,2.469,1.018
					c0.839,0.366,1.719,0.263,2.467-0.107c7.786,1.192,15.906,1.238,23.808,0.796c3.611,3.192,10.154,2.383,13.762-0.672
					c0.023-0.02,0.039-0.042,0.062-0.062c0.093,1.351-0.212,2.789-0.998,4.096c-0.467,0.776-0.452,2.153,0.142,2.871
					c1.613,1.95,2.346,4.101,2.232,6.63c-0.092,2.026,2.154,2.945,3.781,2.583c0.518-0.115,0.461,1.578,0.267,3.315
					c-0.2-0.439-0.661-0.76-1.298-0.569c-3.601,1.083-7.214,2.221-10.856,3.217c-0.356-1.196-1.111-2.182-2.493-2.724
					c-1.978-0.777-4.554-0.48-6.621-0.475c-4.252,0.01-8.507,0.066-12.758,0.001c-0.556-0.008-0.905,0.284-1.051,0.654
					c-0.602,0.013-1.205,0.007-1.807,0.021c-0.677,0.016-1.245,0.485-1.249,1.089c-0.008,1.453-0.029,2.901,0.04,4.352
					c-0.783-0.049-1.56-0.108-2.293-0.123c-1.666-0.036-3.329-0.053-4.995-0.032c-0.041-0.828-0.109-1.631-0.174-2.353
					c0.041-0.662,0.124-1.316,0.137-1.984c0.012-0.595-0.563-1.1-1.207-1.1h-0.285c-0.074-0.013-0.139-0.042-0.218-0.046
					c-3.812-0.182-7.622-0.401-11.433-0.609c-2.654-0.145-6.214-0.978-8.719-0.129c-3.612,1.223-3.079,5.481-2.628,8.957
					c-0.34,1.509-0.408,2.948,0.344,3.845c0.597,0.712,1.484,0.802,2.35,0.953c2.81,0.487,6.155,0.062,9.019,0.071
					c2.799,0.008,8.912,1.244,11.25-0.73c1.076-0.909,1.468-2.602,1.573-4.436c0.055,0.001,0.113,0.01,0.169,0.013
					c0.062,0.357,0.304,0.676,0.808,0.768c2.171,0.399,4.36,0.523,6.559,0.418c0.504,1.712,1.73,3.187,3.981,3.973
					c2.984,1.043,7.018,0.237,10.187,0.382c1.792,0.082,3.489,0.034,4.993-0.531c1.287-0.149,2.571-0.326,3.851-0.55
					c0.319-0.056,0.57-0.279,0.728-0.544c0.378-0.072,0.721-0.301,0.856-0.707c0.549-1.659,1.335-4.15,1.341-6.402
					c3.713-1.139,7.477-2.173,11.216-3.209c0.249-0.069,0.415-0.2,0.545-0.349c-0.165,1.178-0.353,2.191-0.413,2.42
					c-0.703,2.681-1.914,4.981-3.392,7.294c-0.605,0.947-0.333,2.794,0.628,3.462c0.679,0.472,1.33,0.827,1.953,1.083
					c-0.887,4.139-3.008,8.076-5.208,11.852c-2.436,4.181-8.607,7.861-12.386,11.165c-3.778,3.304-8.939,5.648-14.229,5.306
					c-0.692-0.045-1.398-0.14-2.003-0.441c-1.295-0.645-1.811-2.04-2.194-3.314c-0.382-1.274-0.831-2.671-2.073-3.394
					c-1.242-0.723-3.428-0.053-3.268,1.257c0.103,0.846,1.101,1.472,1.108,2.323c0.008,0.978-1.384,1.569-2.444,1.3
					c-1.06-0.269-1.816-1.075-2.504-1.84c-1.651-1.836-3.302-3.671-4.953-5.508c-0.701-0.779-1.494-1.416-2.503-0.986
					c1.34,2.896,4.049,5.666,6.005,8.297c1.607,2.161,3.274,4.378,5.683,5.839c2.876,1.744,6.493,2.213,9.976,2.273
					c4.233,0.073,8.689-0.461,12.095-2.692c2.439-1.598,8.424-6.418,9.954-8.741c5.14-7.804,8.41-13.189,11.138-21.898
					c0.03-0.097,0.059-0.195,0.089-0.292c4.481,0.101,7.175-5.465,8.301-10.218c0.924-3.899,1.333-8.126,0.575-11.92
					C506.628,313.034,507.126,312.192,507.032,310.962z M447.472,328.405c-0.077,0.187-0.173,0.359-0.274,0.525
					c-3.615,0.399-7.396,0.86-10.994,0.686c-1.796-0.087-3.197-0.433-4.207-1.203c0.001-0.019,0.012-0.032,0.012-0.051
					c0.021-2.126,0.041-4.251,0.062-6.377c2.385-0.007,4.77-0.014,7.155-0.021c2.817,0.084,5.634,0.165,8.45,0.264
					c0.116,1.05,0.247,2.257,0.242,3.418C447.806,326.565,447.641,327.485,447.472,328.405z M479.579,326.236
					c-0.483,2.01-1.129,3.454-2.997,4.282c-3.187,0.362-6.401,0.46-9.616,0.19c-2.676-0.225-3.592-0.221-3.835-2.719
					c-0.041-0.42-0.058-0.853-0.074-1.286c0.15-0.319,0.142-0.701-0.016-1.015c0.002-1.065,0.052-2.135,0.132-3.184
					c5.231-0.016,10.459,0.029,15.689,0.052c0.38,0.254,0.638,0.565,0.785,0.939c0.007,0.766,0.015,1.531,0.022,2.296
					C479.639,325.94,479.617,326.078,479.579,326.236z"/>
				<path id="XMLID_740_" style="fill:#E0C74E;" d="M551.647,538.112c-0.281-16.619-0.858-33.233-1.768-49.832
					c-1.189-21.68-1.896-43.955-5.48-65.395c-2.26-13.517-6.938-27.86-18.333-35.814c-2.841-6.451-6.959-11.914-13.214-14.957
					c-1.922-3.132-5.639-3.542-8.582-2.072c-2.32-1.318-5.398-1.493-7.918,0.665c-10.121,8.668-15.775,20.796-19.306,33.423
					c-3.836,13.719-6.099,28.516-6.715,42.731c-0.99,22.841,6.196,45.619,19.37,64.17c0.122,2.669,0.226,5.338,0.294,8.009
					c1.247,49.458-13.297,97.061-27.784,143.8c-1.627,5.25,4.413,9.549,9.068,8.105c1.713-0.532,3.435-1.016,5.155-1.514
					c0.623,0.192,1.279,0.341,2.009,0.386c1.422,0.088,2.844,0.148,4.265,0.189c2.393,1.624,5.563,1.906,7.882-0.013
					c11.684-0.375,23.252-2.332,34.4-5.816l9.421-1.142c1.057-0.128,2.11-0.478,3.057-1.007c3.346,0.435,7.069-1.297,8.047-5.317
					C555.096,617.328,555.906,577.605,551.647,538.112z"/>
				<path id="XMLID_739_" style="fill:#E0C74E;" d="M430.006,372.097c-16.959,21.201-25.563,46.551-29.84,72.833
					c-10.703,42.002-11.468,86.721-9.688,130.315c-0.024,0.284-0.037,0.575-0.027,0.88l1.211,35.758
					c0.373,11.021-0.014,22.414,2.346,33.242c3.59,16.474,21.213,32.269,38.098,21.566c2.529-1.603,3.317-4.584,2.624-7.348
					c-17.628-70.276-20.664-144.072-8.868-215.562c3.329-20.175,7.849-40.128,13.447-59.793c0.36-1.266,0.341-2.385,0.055-3.348
					C444.427,374.294,435.103,365.725,430.006,372.097z"/>
				<path id="XMLID_738_" style="fill:#909294;" d="M427.54,429.325c-3.463-5.673-7.528-10.774-11.613-15.991
					c-3.641-4.649-4.018-10.975-8.995-14.638c-4.891-3.599-11.198-3.625-16.992-3.091c-1.091,0.101-2.066,0.484-2.875,1.061
					c-0.552,0.268-1.06,0.614-1.497,1.03c-1.759,0.388-3.537,0.97-5.336,1.692c-3.604,1.447-4.669,4.995-2.982,8.348
					c7.853,15.608,16.025,31.157,28.634,43.52c1.675,1.642,3.865,1.74,5.728,0.957c1.044,0.396,2.193,0.624,3.481,0.625
					c3.278,0.003,6.654-0.621,9.883-1.16c3.321-0.555,6.4-1.172,8.119-4.408C436.141,441.534,430.429,434.057,427.54,429.325z"/>
				<path id="XMLID_737_" style="fill:#606060;" d="M436.651,441.12c-10.126-14.638-20.118-29.371-30.171-44.058
					c-1.329-1.941-3.544-1.891-5.06-0.872c-5.277-0.241-10.556-0.298-15.837-0.102c-2.849,0.106-5.975,0.016-7.424,2.85
					c-0.438,0.856,0.249,1.736,1.142,1.748c6.657,0.091,13.314,0.173,19.972,0.262c0.295,0.516,0.905,0.588,1.406,0.358
					c9.967,14.569,19.995,29.099,29.89,43.718C433.179,448.882,439.297,444.946,436.651,441.12z"/>
				<path id="XMLID_736_" style="fill:#E0C74E;" d="M491.798,493.136c-7.884-5.393-15.98-10.478-24.296-15.173
					c-6.132-6.637-13.231-12.358-21.14-16.997c-2.543-1.491-4.9-0.979-6.556,0.475c-0.388,0.06-0.771,0.147-1.141,0.283
					c-1.236-0.82-2.472-1.463-3.641-1.792c-0.005,0.002-0.01,0.006-0.015,0.008c-0.776,0.37-1.531,0.76-2.261,1.214
					c-0.104,0.065-0.6,0.404-0.976,0.658c-0.37,0.304-1.117,0.892-1.112,0.888c-0.331,0.282-0.658,0.57-0.985,0.857
					c-0.096,2.978,1.648,7.083,3.482,10.421l4.901,8.924c0.177,0.391,0.374,0.782,0.62,1.174c0.069,0.11,0.138,0.222,0.207,0.332
					l7.802,14.207c0.519,0.192,1.044,0.449,1.572,0.77c1.678,2.557,3.417,5.08,5.239,7.515c2.764,7.949,8.919,14.491,16.73,18.945
					c9.963,5.681,28.144,13.928,35.479,0.462C512.861,513.174,502.076,500.166,491.798,493.136z"/>
				<path id="XMLID_735_" style="fill:#E0C74E;" d="M524.525,406.323c-1.484-2.852-5.114-3.941-7.978-2.947
					c-2.27-0.076-4.739,0.395-7.414,1.576c-15.296,6.749-18.782,26.062-22.04,40.561c-4.618,20.549-7.656,41.684-4.406,62.678
					c0.378,2.441,1.822,4.007,3.601,4.77c-0.123,2.326-0.154,4.661-0.1,7.011c0.089,3.857,2.872,5.569,5.801,5.468
					c1.109,0.511,2.132,0.755,3.076,0.781c1.209,1,2.766,1.552,4.536,1.339c18.963-2.281,17.591-26.735,20.61-40.742
					c1.987-9.217,4.77-18.104,8.121-26.909c3.145-8.264,6.396-16.711,6.896-25.627C535.73,425.333,532.117,412.157,524.525,406.323z
					"/>
				<path id="XMLID_734_" style="fill:#D0C5C2;" d="M430.209,465.218c0.589-0.134,1.172-0.338,1.744-0.644
					c2.577-1.376,3.629-4.035,4.101-6.766c0.683-3.948,0.275-8.018,0.015-12.037c-1.609-2.61-3.499-4.968-6.141-6.628
					c-0.475,0.573-0.951,1.147-1.426,1.72l1.41,3.641c-2.243-2.461-4.846-4.632-7.682-6.404c-2.754-1.721-6.562-2.999-8.612-1.055
					c-2.023,1.919-0.813,5.503,0.707,8.235C418.425,452.644,424.035,459.142,430.209,465.218z"/>
			</g>
		</g>
		<defs>
			<filter id="Adobe_OpacityMaskFilter" filterUnits="userSpaceOnUse" x="414.075" y="866.765" width="503.891" height="30.461">
				<feFlood  style="flood-color:white;flood-opacity:1" result="back"/>
				<feBlend  in="SourceGraphic" in2="back" mode="normal"/>
			</filter>
		</defs>
		
			<mask maskUnits="userSpaceOnUse" x="414.075" y="866.765" width="503.891" height="30.461" id="XMLID_00000090987497238135101190000001887317077927162779_">
			<g style="filter:url(#Adobe_OpacityMaskFilter);">
				<defs>
					
						<filter id="Adobe_OpacityMaskFilter_00000075869231197312316970000007495423644350199976_" filterUnits="userSpaceOnUse" x="414.075" y="866.765" width="503.891" height="30.461">
						<feFlood  style="flood-color:white;flood-opacity:1" result="back"/>
						<feBlend  in="SourceGraphic" in2="back" mode="normal"/>
					</filter>
				</defs>
				
					<mask maskUnits="userSpaceOnUse" x="414.075" y="866.765" width="503.891" height="30.461" id="XMLID_00000090987497238135101190000001887317077927162779_">
					<g style="filter:url(#Adobe_OpacityMaskFilter_00000075869231197312316970000007495423644350199976_);">
					</g>
				</mask>
				
					<linearGradient id="XMLID_00000000942598060467043090000004283622897187850384_" gradientUnits="userSpaceOnUse" x1="1105.2771" y1="2414.1489" x2="1182.8004" y2="2414.1489" gradientTransform="matrix(6.4968 0.0297 -0.2808 3.1952 -6088.6401 -6865.8623)">
					<stop  offset="0" style="stop-color:#FFFFFF"/>
					<stop  offset="1" style="stop-color:#000000"/>
				</linearGradient>
				
					<path id="XMLID_2979_" style="mask:url(#XMLID_00000090987497238135101190000001887317077927162779_);fill:url(#XMLID_00000000942598060467043090000004283622897187850384_);" d="
					M908.066,888.409c10.084-2.879,13.353-6.671,5.62-11.649c-6.218-4.003-25.775-2.594-34.573-3.067
					c-41.18-2.214-82.42-4.226-123.86-5.404c-83.347-2.37-167.208-1.976-250.828,1.189c-12.412,0.47-101.969,0.991-89.086,15.878
					c6.55,7.568,42.542,4.032,55.634,4.396c28.617,0.794,57.233,1.589,85.849,2.383c58.875,1.634,120.548,3.347,171.718,4.766
					C741.268,897.252,870.915,899.017,908.066,888.409z"/>
			</g>
		</mask>
		
			<linearGradient id="XMLID_00000079459462260907054270000013657973044553345957_" gradientUnits="userSpaceOnUse" x1="1105.2771" y1="2414.1489" x2="1182.8004" y2="2414.1489" gradientTransform="matrix(6.4968 0.0297 -0.2808 3.1952 -6088.6401 -6865.8623)">
			<stop  offset="0" style="stop-color:#000000"/>
			<stop  offset="1" style="stop-color:#000000"/>
		</linearGradient>
		<path id="XMLID_733_" style="opacity:0.22;fill:url(#XMLID_00000079459462260907054270000013657973044553345957_);" d="
			M908.066,888.409c10.084-2.879,13.353-6.671,5.62-11.649c-6.218-4.003-25.775-2.594-34.573-3.067
			c-41.18-2.214-82.42-4.226-123.86-5.404c-83.347-2.37-167.208-1.976-250.828,1.189c-12.412,0.47-101.969,0.991-89.086,15.878
			c6.55,7.568,42.542,4.032,55.634,4.396c28.617,0.794,57.233,1.589,85.849,2.383c58.875,1.634,120.548,3.347,171.718,4.766
			C741.268,897.252,870.915,899.017,908.066,888.409z"/>
		<g>
			<g>
				<g>
					<path style="fill:#456184;" d="M888.068,588.911c-14.82-10.431-31.203-18.055-47.304-26.227
						c-14.029-7.121-26.677-15.737-41.21-22.579c-33.086-15.578-66.358-32.514-98.465-49c-2.156-1.107-4.384-1.936-6.642-2.518
						c4.471,1.153,7.75-66.191,7.372-72.229c-1.495-23.855-6.848-47.447-15.774-69.619c-9.152-22.735-22.051-43.939-38.073-62.487
						c-8-9.261-17.052-16.774-25.992-24.891c-9.691-8.799-17.297-18.935-29.84-24.071c-42.874-17.554-84.253-30.954-131.34-27.018
						c-45.216,3.78-89.047,21.249-124.01,50.253c-31.764,26.35-49.837,57.802-65.719,95.103c-1.47,3.452-2.94,6.905-4.41,10.357
						c-17.265,40.55-12.789,94.409,0.77,135.695c14.364,43.739,42.304,82.523,79.387,109.83
						c20.039,14.757,42.224,32.138,67.879,34.958c24.437,2.686,46.961,9.374,72.019,8.511
						c48.316-1.663,95.606-19.314,133.149-49.781c11.85-9.616,22.699-20.459,32.323-32.303c1.789,1.496,3.761,2.823,5.917,3.93
						c6.815,0,21.443,10.473,27.696,13.782c10.575,5.595,20.56,12.523,30.981,18.439c25.9,14.706,53.43,25.338,79.597,38.773
						c12.005,6.164,24.01,12.328,36.015,18.491c3.394,1.743,6.942,3.331,10.24,5.251c12.418,7.228,25.736,8.297,40.211,8.482
						c4.728,0.06,9.624-0.114,13.891-2.15c3.93-1.875,6.978-5.163,9.872-8.417c6.78-7.625,13.532-16.01,15.226-26.071
						c1.837-10.912-2.737-22.124-9.763-30.672C905.095,602.243,896.924,595.145,888.068,588.911z M638.204,511.712
						C591.997,601.709,481.581,637.207,391.585,591s-125.495-156.623-79.288-246.62s156.623-125.495,246.62-79.288
						C648.913,311.3,684.411,421.715,638.204,511.712z"/>
					
						<ellipse transform="matrix(0.7071 -0.7071 0.7071 0.7071 -163.4767 461.4245)" style="opacity:0.18;fill:#B4FFFF;" cx="475.25" cy="428.046" rx="183.177" ry="183.177"/>
				</g>
				<g id="XMLID_322_">
					<g id="XMLID_653_" style="opacity:0.9;">
						<path id="XMLID_654_" style="fill:#FFFFFF;" d="M548.579,538.67c-1.421,1.761-2.918,3.453-4.53,5.043
							c-0.773,0.762-1.581,1.482-2.378,2.216c-0.544,0.405-1.068,0.838-1.613,1.242c-1.803,1.338-3.677,2.583-5.607,3.731
							c-0.969,0.576-1.951,1.131-2.946,1.661c-0.499,0.266-1.001,0.526-1.505,0.781c-0.096,0.048-0.2,0.108-0.305,0.173
							c0.009-0.007,0.015-0.011,0.024-0.018c-0.011,0.008-0.023,0.016-0.034,0.024c-0.177,0.109-0.358,0.234-0.52,0.35
							c-1.65,1.003-4.084,1.565-5.795,2.174c-2.434,0.866-4.906,1.625-7.404,2.289c-1.114,0.296-2.233,0.572-3.356,0.83
							c-0.628,0.144-2.892,0.253-3.362,0.701c-0.417,0.069-0.834,0.14-1.252,0.205c-1.279,0.2-2.562,0.378-3.846,0.535
							c-4.635,0.569-9.303,0.867-13.973,0.926c-2.121,0.027-4.242,0.003-6.361-0.07c-1.059-0.037-2.116-0.086-3.174-0.147
							c-0.228-0.013-0.682,0.011-0.96,0.029c0.122-0.01,0.293-0.023,0.537-0.043c1.906-0.156-0.732-0.066-1.212-0.11
							c-8.823-0.818-17.565-2.481-26.085-4.91c-2.037-0.581-4.062-1.204-6.072-1.87c-0.35-0.116-0.699-0.235-1.048-0.353
							c-1.115-0.448-2.265-0.827-3.384-1.263c-4.202-1.639-8.33-3.466-12.372-5.465c-3.928-1.942-7.774-4.051-11.527-6.315
							c-1.934-1.167-3.843-2.374-5.726-3.622c-0.235-0.156-0.469-0.313-0.703-0.471c0.02,0.025,0.039,0.046,0.06,0.072
							c-0.023-0.029-0.054-0.057-0.079-0.085c-0.201-0.135-0.401-0.27-0.603-0.404c-0.354-0.236-0.523-0.431-0.545-0.523
							c-0.589-0.384-1.227-0.739-1.689-1.078c-7.171-5.262-13.903-11.127-20.079-17.527c-1.473-1.526-2.915-3.082-4.324-4.668
							c-0.665-0.748-1.316-1.507-1.968-2.266c-0.38-0.474-0.768-0.942-1.147-1.416c-2.807-3.516-5.456-7.157-7.932-10.913
							c-2.765-4.195-5.309-8.536-7.615-13c-0.546-1.058-1.078-2.123-1.597-3.194c-0.2-0.413-0.821-2.033-0.196-0.399
							c0.678,1.773-0.168-0.394-0.336-0.772c-1.078-2.421-2.086-4.873-3.02-7.353c-1.853-4.917-3.473-9.955-4.623-15.086
							c-0.015-0.068-0.042-0.185-0.073-0.322c-0.068-0.391-0.265-1.409-0.295-1.618c-0.22-1.507-0.385-3.024-0.472-4.544
							c-0.018-0.311-0.173-1.935-0.196-3.154c0.016-0.097,0.059-0.386,0.148-0.992c0.133-0.904,0.259-1.803,0.424-2.703
							c1.137-6.19-2.809-13.188-9.338-14.251c-6.316-1.028-13.032,2.701-14.251,9.338c-2.249,12.25,0.226,24.556,4.138,36.203
							c3.227,9.608,7.533,18.943,12.607,27.713c9.831,16.992,23.16,32.263,38.463,44.539
							c31.307,25.113,71.575,39.689,111.933,36.729c24.675-1.81,50.813-10.41,66.833-30.273c3.945-4.891,4.486-12.656-0.716-17.022
							C560.869,533.982,552.809,533.426,548.579,538.67z M355.52,447.284c0.022-0.01-0.127,1.087-0.161,1.366
							C355.345,447.924,355.38,447.346,355.52,447.284z"/>
					</g>
					<g id="XMLID_323_">
						<path id="XMLID_652_" style="fill:#456184;" d="M412.089,536.924c-0.756-0.923-1.206-1.105-1.167-0.94
							c0.445,0.29,0.857,0.597,1.147,0.927C412.076,536.915,412.082,536.919,412.089,536.924z"/>
					</g>
				</g>
				<g id="XMLID_308_" style="opacity:0.9;">
					<path id="XMLID_309_" style="fill:#FFFFFF;" d="M587.608,515.887c-5.939-2.721-13.132-0.793-16.216,5.213
						c-2.878,5.605-0.706,13.504,5.213,16.216c5.939,2.721,13.132,0.793,16.216-5.213
						C595.699,526.498,593.528,518.599,587.608,515.887z"/>
				</g>
				<path id="XMLID_307_" style="fill:#456184;" d="M663.047,251.466c-8.999-3.269-14.071,10.739-5.036,14.021
					c41.809,15.186,71.09,57.709,69.834,102.282c-0.269,9.538,14.572,10.88,14.843,1.262
					C744.132,317.784,711.336,269.005,663.047,251.466z"/>
				<path id="XMLID_9_" style="fill:#456184;" d="M689.55,214.855c-8.59-4.194-13.584,9.847-5.036,14.021
					c51.565,25.178,86.039,81.019,85.732,138.344c-0.051,9.518,14.791,10.879,14.843,1.262
					C785.436,303.883,747.549,243.174,689.55,214.855z"/>
				<path id="XMLID_8_" style="fill:#456184;" d="M188.781,442.375c-6.217,33.642,8.34,68.839,35.878,88.907
					c7.749,5.647,16.33-6.526,8.579-12.175c-23.615-17.209-34.899-46.872-29.613-75.47
					C205.363,434.222,190.512,433.005,188.781,442.375z"/>
				<path id="XMLID_7_" style="fill:#456184;" d="M150.158,466.116c-1.168,27.264,9.99,52.766,30.375,70.784
					c7.171,6.339,15.694-5.887,8.579-12.175c-16.245-14.359-25.035-35.768-24.111-57.347
					C165.409,457.833,150.569,456.502,150.158,466.116z"/>
			</g>
			<path style="fill:#2F4156;" d="M767.051,523.378c-0.526-0.015-1.019,0.023-1.471,0.122c-11.252,2.471-15.018,27.518-19.44,36.129
				c-7.828,15.238-15.851,30.375-23.967,45.461c-3.917,7.281,0.081,7.749,5.806,10.538c4.365,2.126,8.728,4.257,13.091,6.386
				c12.687,6.188,25.373,12.377,38.06,18.565c28.981,14.137,57.962,28.273,86.942,42.41c14.635,7.139,29.793,16.916,45.22,22.06
				c11.5,3.834,25.645-0.21,36.081-6.747c20.076-12.576,30.037-47.03,14.591-66.766c-5.389-6.886-13.033-11.578-20.537-16.065
				c-39.182-23.431-79.254-45.374-120.098-65.768c-9.935-4.961-19.916-9.83-29.941-14.607
				C786.135,532.591,773.794,523.576,767.051,523.378z"/>
		</g>
	</g>
</g>
</svg>
