<?xml version="1.0" encoding="utf-8"?>
<!-- Generator: Adobe Illustrator 19.0.0, SVG Export Plug-In . SVG Version: 6.00 Build 0)  -->
<svg xmlns="http://www.w3.org/2000/svg" xmlns:xlink="http://www.w3.org/1999/xlink" version="1.1" id="Layer_1" x="0px" y="0px" viewBox="0 0 1400 980" style="enable-background:new 0 0 1400 980;" xml:space="preserve">
<style type="text/css">
	.st0{fill:#FFFFFF;}
	.st1{fill:#414042;}
	.st2{fill:#F3FF2E;}
	.st3{fill:#D1D3D4;}
	.st4{fill:#62C3EE;}
	.st5{fill:#F56B68;}
	.st6{fill:#4F4B48;}
	.st7{fill:#C1D93B;}
</style>
<g>
	<g>
		
	</g>
	<rect x="448.1" y="197.5" class="st0" width="4.1" height="36.4"/>
	<rect x="494.4" y="197.5" class="st0" width="3.4" height="14.8"/>
	<polygon class="st1" points="378.7,267.5 369.5,276.7 360.4,285.8 360.4,315.1 360.4,315.1 378.7,296.8  "/>
	<polygon class="st1" points="604.5,180.5 604.5,195.9 613.7,186.8 622.8,177.7 622.8,162.3 608.9,162.3 599.7,171.4 590.6,180.5     "/>
	<polygon class="st2" points="588.7,180.5 597.8,171.4 606.9,162.3 577.6,162.3 568.5,171.4 559.4,180.5  "/>
	<polygon class="st1" points="411.2,297.4 402.1,306.6 393,315.7 422.3,315.7 431.4,306.6 440.5,297.4  "/>
	<polygon class="st2" points="378.7,180.5 401.2,180.5 419.5,162.3 390.2,162.3 375.3,177.2 360.4,192 360.4,221.4 369.5,212.2    378.7,203.1  "/>
	<polygon class="st3" points="506.5,317.1 485.3,317.1 483.4,317.1 476.7,317.1 476.7,408 506.5,408  "/>
	<polygon class="st2" points="380,297.4 370.9,306.6 361.7,315.7 391,315.7 400.2,306.6 409.3,297.4  "/>
	<polygon class="st2" points="378.7,236.3 369.5,245.4 360.4,254.5 360.4,283.8 369.5,274.7 378.7,265.6  "/>
	<polygon class="st1" points="378.7,205 369.5,214.2 360.4,223.3 360.4,252.6 369.5,243.5 378.7,234.3  "/>
	<rect x="486" y="255.3" class="st0" width="2.3" height="11.1"/>
	<polygon class="st2" points="526.2,180.5 544.4,162.3 515.1,162.3 506,171.4 496.9,180.5  "/>
	<polygon class="st1" points="566.6,171.4 575.7,162.3 546.4,162.3 528.1,180.5 557.4,180.5  "/>
	<polygon class="st1" points="473.7,297.4 464.6,306.6 455.5,315.7 475.3,315.7 484.8,315.7 503,297.4  "/>
	<polygon class="st2" points="463.7,180.5 472.8,171.4 481.9,162.3 452.6,162.3 443.5,171.4 434.4,180.5  "/>
	<polygon class="st1" points="494.9,180.5 504.1,171.4 513.2,162.3 483.9,162.3 474.8,171.4 465.6,180.5  "/>
	<polygon class="st2" points="442.5,297.4 433.3,306.6 424.2,315.7 453.5,315.7 462.7,306.6 471.8,297.4  "/>
	<polygon class="st1" points="441.6,171.4 450.7,162.3 421.4,162.3 403.2,180.5 432.5,180.5  "/>
	<polygon class="st1" points="536.2,297.4 527.1,306.6 518,315.7 547.3,315.7 556.4,306.6 565.5,297.4  "/>
	<polygon class="st2" points="505,297.4 486.7,315.7 507.9,315.7 516,315.7 525.1,306.6 534.3,297.4  "/>
	<polygon class="st2" points="604.5,289.6 613.7,280.5 622.8,271.4 622.8,242.1 613.7,251.2 604.5,260.3  "/>
	<polygon class="st2" points="604.5,227.2 613.7,218 622.8,208.9 622.8,179.6 613.7,188.7 604.5,197.9  "/>
	<polygon class="st1" points="604.5,258.4 613.7,249.3 622.8,240.2 622.8,210.9 613.7,220 604.5,229.1  "/>
	<polygon class="st2" points="567.4,297.4 558.3,306.6 549.2,315.7 578.5,315.7 587.6,306.6 596.7,297.4  "/>
	<polygon class="st1" points="604.5,297.4 598.7,297.4 589.6,306.6 580.4,315.7 609.7,315.7 616.3,309.2 622.8,302.6 622.8,273.3    613.7,282.5 604.5,291.6  "/>
	<rect x="412.9" y="255.3" class="st0" width="2.9" height="27.7"/>
	<rect x="565.8" y="255.3" class="st0" width="2.9" height="27.7"/>
	<polygon class="st2" points="622.8,315.7 622.8,304.6 617.2,310.1 611.7,315.7  "/>
	<polygon class="st1" points="360.4,190.1 374.3,176.2 388.2,162.3 360.4,162.3  "/>
	<g>
		<path class="st1" d="M458.8,236.9v-42.2c0-2-1.6-3.7-3.7-3.7h-13.5v49.5h13.5C457.1,240.5,458.8,238.8,458.8,236.9z M453.6,235.3    h-6.9v-39.1h6.9V235.3z"/>
		<rect x="551.3" y="250.2" class="st1" width="3.7" height="37.7"/>
		<path class="st1" d="M457.4,250.2h-7.6c-1.6,0-2.7,1.1-2.7,2.7v14.8c0,1.3,1.1,2.6,2.7,2.6h6.6v14h-5.6v-6.8h-3.7v7.8    c0,1.4,1.2,2.6,2.7,2.6h7.6c1.4,0,2.7-1.2,2.7-2.6v-16c0-1.5-1.2-2.7-2.7-2.7h-6.6v-12.8h5.6v6.5h3.7v-7.5    C460,251.3,458.9,250.2,457.4,250.2z"/>
		<polygon class="st1" points="471.1,216.7 478,216.7 478,211.6 471.1,211.6 471.1,196.2 480.9,196.2 480.9,191 466,191 466,240.5     481.4,240.5 481.4,235.3 471.1,235.3   "/>
		<polygon class="st1" points="468.7,288 472.3,288 472.3,253.9 476.8,253.9 476.8,250.2 464.2,250.2 464.2,253.9 468.7,253.9   "/>
		<path class="st1" d="M499.9,240.5h5.2v-20.2c0-1.5-0.9-3.3-2.5-3.6l0-1.3c1-0.3,1.8-1.5,1.8-2.9v-17.7c0-2-1.6-3.7-3.7-3.7h-12.8    v49.5h5.2v-21.6h6.9V240.5z M499.1,213.7h-6.1v-17.6h6.1V213.7z"/>
		<path class="st1" d="M520.9,288h7.6c1.4,0,2.7-1.2,2.7-2.6v-7.8h-3.7v6.8h-5.6v-30.4h5.6v6.7h3.7v-7.7c0-1.5-1.2-2.7-2.7-2.7h-7.6    c-1.4,0-2.7,1.2-2.7,2.7v32.5C518.2,286.8,519.5,288,520.9,288z"/>
		<polygon class="st1" points="539,288 542.7,288 542.7,253.9 547.1,253.9 547.1,250.2 534.5,250.2 534.5,253.9 539,253.9   "/>
		<path class="st1" d="M492.1,269.9l0-1.3c0.7-0.2,1.2-1,1.2-2.1v-13.6c0-1.5-1.2-2.7-2.7-2.7H481V288h3.7v-16.6h5.6V288h3.7v-15.4    C493.9,271.5,493.3,270.2,492.1,269.9z M489.6,267.7h-5v-13.8h5V267.7z"/>
		<path class="st1" d="M512.4,285.4v-35.1h-3.7v34.1h-5.6v-34.1h-3.7v35.1c0,1.4,1.2,2.6,2.7,2.6h7.6    C511.2,288,512.4,286.8,512.4,285.4z"/>
		<path class="st1" d="M400.2,250.2h-7.6c-1.4,0-2.7,1.2-2.7,2.7v32.5c0,1.4,1.2,2.6,2.7,2.6h7.6c1.4,0,2.7-1.2,2.7-2.6v-7.8h-3.7    v6.8h-5.6v-30.4h5.6v6.7h3.7v-7.7C402.8,251.4,401.6,250.2,400.2,250.2z"/>
		<path class="st1" d="M418.1,250.2h-7.6c-1.4,0-2.7,1.2-2.7,2.7v32.5c0,1.4,1.2,2.6,2.7,2.6h7.6c1.4,0,2.7-1.2,2.7-2.6v-32.5    C420.8,251.4,419.6,250.2,418.1,250.2z M417.2,284.3h-5.6v-30.4h5.6V284.3z"/>
		<polygon class="st1" points="426.7,250.2 426.7,288 430.3,288 430.3,267.7 431.7,267.5 436.6,288 441.3,288 441.3,250.2     437.6,250.2 437.6,269 436.3,269.2 431.6,250.2   "/>
		<path class="st1" d="M394.2,240.5h9.9c2,0,3.7-1.6,3.7-3.6V191h-5.2v44.3h-6.9V191h-5.2v45.9C390.6,238.8,392.3,240.5,394.2,240.5    z"/>
		<path class="st1" d="M563.5,288h7.6c1.4,0,2.7-1.2,2.7-2.6v-32.5c0-1.5-1.2-2.7-2.7-2.7h-7.6c-1.4,0-2.7,1.2-2.7,2.7v32.5    C560.8,286.8,562,288,563.5,288z M564.5,253.9h5.6v30.4h-5.6V253.9z"/>
		<polygon class="st1" points="434.4,240.5 434.4,191 429.2,191 429.2,215.6 427.9,215.8 421.7,191 415,191 415,240.5 420.1,240.5     420.1,213.8 421.5,213.7 427.9,240.5   "/>
		<polygon class="st1" points="594.2,288 594.2,250.2 590.5,250.2 590.5,269 589.2,269.2 584.5,250.2 579.6,250.2 579.6,288     583.2,288 583.2,267.7 584.6,267.5 589.5,288   "/>
	</g>
	<polygon class="st2" points="244.4,387.1 274.8,387.1 282.2,356.2 236.9,356.2  "/>
	<rect x="248.6" y="388.7" class="st2" width="21.9" height="6.9"/>
	<g>
		<polygon class="st2" points="704,392.9 734.4,392.9 741.8,362 696.6,362   "/>
		<rect x="708.3" y="394.4" class="st2" width="21.9" height="6.9"/>
		<path d="M743.5,360.7c-0.2-0.2-0.4-0.3-0.6-0.3H720v-4.3h-1.6v4.3h-22.9c-0.2,0-0.5,0.1-0.6,0.3c-0.1,0.2-0.2,0.4-0.1,0.7    l7.8,32.5c0.1,0.4,0.4,0.6,0.8,0.6h3.3v7.7c0,0.4,0.4,0.8,0.8,0.8h10.9v4.8l-1.2,0.3h2.7v-5.1h10.9c0.4,0,0.8-0.4,0.8-0.8v-7.7    h3.3c0.4,0,0.7-0.2,0.8-0.6l7.8-32.5C743.7,361.2,743.6,360.9,743.5,360.7z M730.1,401.3h-21.9v-6.9h21.9V401.3z M734.4,392.9H704    l-7.4-30.9h45.3L734.4,392.9z"/>
	</g>
	<path d="M1254.2,170c0-0.1,0-0.1,0-0.2c0-0.1-0.1-0.1-0.2-0.2c-0.1-0.1-0.1-0.1-0.1-0.1h0c0,0,0,0,0,0c-0.1,0-0.1,0-0.2,0   c-0.2,0-0.3-0.1-0.4-0.1h-141.4V99.2c0-0.1-0.1-0.2-0.1-0.4c0-0.1,0-0.1,0-0.2c0,0-0.1-0.1-0.2-0.2c0,0-0.1-0.1-0.2-0.2   c-0.1,0-0.1,0-0.2,0c-0.1,0-0.2-0.1-0.4-0.1h-70.7c-0.1,0-0.3,0.1-0.4,0.1c-0.1,0-0.1,0-0.2,0c-0.1,0-0.1,0.1-0.2,0.2   c-0.1,0-0.1,0.1-0.1,0.2c0,0.1,0,0.1,0,0.2c0,0.1-0.1,0.2-0.1,0.4v70.2H898.1h-1.7h-69.6h-0.4h-71.3l-0.1,0l-0.3,0   c-0.1,0-0.1,0-0.2,0l-0.1,0l-0.1,0c0,0-0.1,0.1-0.2,0.1l-0.3,0.2l-71,71c-0.2,0.2-0.3,0.6-0.2,0.9c0.1,0.3,0.4,0.5,0.7,0.5h23.4   v13.7c0,0.4,0.4,0.8,0.8,0.8h10.7v99.5h1.6v-99.5h106.8h160.7v36.2c0,0.4,0.4,0.8,0.8,0.8h50.7v516.8h-33.6c-0.4,0-0.8,0.4-0.8,0.8   v19.3h-21.1c-0.4,0-0.8,0.4-0.8,0.8v20.1c0,0,0,0.1,0,0.1H1168c0,0,0-0.1,0-0.1v-20.1c0-0.4-0.4-0.8-0.8-0.8h-21v-19.3   c0-0.4-0.4-0.8-0.8-0.8h-33.6V242.1c0,0,141.7,0,141.8,0l0.2-0.1c0.1,0,0.1-0.1,0.2-0.2c0.1-0.1,0.1-0.1,0.2-0.2c0,0,0-0.1,0-0.2   c0-0.1,0.1-0.2,0.1-0.4v-70.7C1254.3,170.3,1254.2,170.1,1254.2,170z M1109.1,170.9l-33.7,33.7l-33.7-33.7H1109.1z M1041.7,169.3   l33.7-33.7l33.7,33.7H1041.7z M1109.1,240.6h-67.4l33.7-33.7L1109.1,240.6z M1109.1,242.1l-33.7,33.7l-33.7-33.7H1109.1z    M1109.1,311.8h-67.4l33.7-33.7L1109.1,311.8z M1109.1,313.4l-33.7,33.7l-33.7-33.7H1109.1z M1109.1,383.1h-67.4l33.7-33.7   L1109.1,383.1z M1109.1,384.6l-33.7,33.7l-33.7-33.7H1109.1z M1075.4,420.6l33.7,33.7h-67.4L1075.4,420.6z M1109.1,455.9   l-33.7,33.7l-33.7-33.7H1109.1z M1109.1,525.5h-67.4l33.7-33.7L1109.1,525.5z M1109.1,527.1l-33.7,33.7l-33.7-33.7H1109.1z    M1109.1,596.8h-67.4l33.7-33.7L1109.1,596.8z M1109.1,598.3l-33.7,33.7l-33.7-33.7H1109.1z M1109.1,668h-67.4l33.7-33.7   L1109.1,668z M1109.1,669.6l-33.7,33.7l-33.7-33.7H1109.1z M1109.1,739.2h-67.4l33.7-33.7L1109.1,739.2z M1109.1,740.8l-33.7,33.7   l-33.7-33.7H1109.1z M1109.1,810.5h-67.4l33.7-33.7L1109.1,810.5z M1076.5,775.6l33.7-33.7v67.4L1076.5,775.6z M1076.5,704.4   l33.7-33.7v67.4L1076.5,704.4z M1076.5,633.2l33.7-33.7v67.4L1076.5,633.2z M1076.5,561.9l33.7-33.7v67.4L1076.5,561.9z    M1076.5,490.7l33.7-33.7v67.4L1076.5,490.7z M1076.5,419.5l33.7-33.7v67.4L1076.5,419.5z M1076.5,348.2l33.7-33.7v67.4   L1076.5,348.2z M1076.5,277l33.7-33.7v67.4L1076.5,277z M1076.5,205.7l33.7-33.7v67.4L1076.5,205.7z M1076.5,134.5l33.7-33.7v67.4   L1076.5,134.5z M1109.1,99.7l-33.7,33.7l-33.7-33.7H1109.1z M1040.6,100.8l33.7,33.7l-33.7,33.7V100.8z M1040.6,172l33.7,33.7   l-33.7,33.7V172z M1040.6,243.3l33.7,33.7l-33.7,33.7V243.3z M1040.6,314.5l33.7,33.7l-33.7,33.7V314.5z M1040.6,385.7l33.7,33.7   l-33.7,33.7V385.7z M1040.6,457l33.7,33.7l-33.7,33.7V457z M1040.6,528.2l33.7,33.7l-33.7,33.7V528.2z M1040.6,599.4l33.7,33.7   l-33.7,33.7V599.4z M1040.6,670.7l33.7,33.7l-33.7,33.7V670.7z M1040.6,741.9l33.7,33.7l-33.7,33.7V741.9z M1037.9,170.9   l-33.7,33.7l-33.7-33.7H1037.9z M1039,172v67.4l-33.7-33.7L1039,172z M969.4,172l33.7,33.7l-33.7,33.7V172z M934.1,205.7l33.7-33.7   v67.4L934.1,205.7z M966.7,240.6h-67.4l33.7-33.7L966.7,240.6z M966.7,170.9L933,204.6l-33.7-33.7H966.7z M898.1,172l33.7,33.7   l-33.7,33.7V172z M862.8,205.7l33.6-33.6v67.2L862.8,205.7z M895.4,240.6H828l33.7-33.7L895.4,240.6z M895.4,170.9l-33.7,33.7   L828,170.9H895.4z M826.9,172l33.7,33.7l-33.7,33.7V172z M791.5,205.7l33.7-33.7v67.4L791.5,205.7z M824.2,240.6h-67.4l33.7-33.7   L824.2,240.6z M824.2,170.9l-33.7,33.7l-33.7-33.7H824.2z M755.6,172l33.7,33.7l-33.7,33.7V172z M685.5,240.6L754,172v68.6H685.5z    M987.5,255.1H826.8H708.5v-12.9h116.8h1.5h69.6h1.7h89.4V255.1z M970.5,240.6l33.7-33.7l33.7,33.7H970.5z M989.1,292.1v-49.9h49.9   v49.9H989.1z M1166.5,832.2v18.5H984.3v-18.5H1166.5z M1144.7,812v18.5h-138.5V812H1144.7z M1251.6,170.9l-33.7,33.7l-33.7-33.7   H1251.6z M1180.4,170.9l-33.7,33.7l-33.7-33.7H1180.4z M1111.8,172l33.7,33.7l-33.7,33.7V172z M1112.9,240.6l33.7-33.7l33.7,33.7   H1112.9z M1181.5,239.5l-33.7-33.7l33.7-33.7V239.5z M1183.1,172l33.7,33.7l-33.7,33.7V172z M1184.2,240.6l33.7-33.7l33.7,33.7   H1184.2z M1252.7,239.5l-33.7-33.7l33.7-33.7V239.5z"/>
	<path d="M983.6,852.3h183.7c0.4,0,0.7-0.3,0.8-0.7H982.8C982.9,852,983.2,852.3,983.6,852.3z"/>
	<rect x="198.6" y="455.3" width="0.9" height="1.9"/>
	<g>
		<path class="st0" d="M320.6,776.8V457.1H199.5v319.7H320.6z M208.2,468.3h103.7V572H208.2V468.3z M208.2,582.1h103.7v185.3H208.2    V582.1z"/>
		<rect x="210.1" y="584" class="st2" width="100" height="181.5"/>
		<rect x="198.6" y="455.3" width="0.9" height="1.9"/>
		<rect x="199.5" y="426.8" class="st0" width="121.1" height="28.5"/>
		<rect x="210.1" y="470.2" class="st4" width="100" height="100"/>
		<path d="M197.6,424.9v353.7h124.9V424.9H197.6z M320.6,455.3H199.5v1.9h121.1v319.7H199.5V457.1h-0.9v-1.9h0.9v-28.5h121.1V455.3z    "/>
		<path d="M311.9,468.3H208.2V572h103.7V468.3z M310.1,570.2h-100v-100h100V570.2z"/>
		<path d="M311.9,582.1H208.2v185.3h103.7V582.1z M310.1,765.5h-100V584h100V765.5z"/>
	</g>
	<rect x="223" y="165.4" width="0.1" height="69.5"/>
	<path d="M258.8,354.7h-22.9c-0.2,0-0.5,0.1-0.6,0.3c-0.1,0.2-0.2,0.4-0.1,0.7l7.8,32.5c0.1,0.4,0.4,0.6,0.8,0.6h3.3v7.7   c0,0.4,0.4,0.8,0.8,0.8h10.9v5.7c0,0.4,0.4,0.8,0.8,0.8c4.1,0,7.5,3.4,7.5,7.5s-3.4,7.5-7.5,7.5c-2.2,0-4.3-1-5.7-2.7l-1.4,0.7   c0.5,0.7,1.2,1.3,2,1.8l2.4,1.7l2.8,0.2l2.9-0.1l2.3-1.7c2.4-1.7,3.8-4.5,3.8-7.4c0-4.2-2.8-7.8-6.9-8.8l-1.4-0.4v-4.8h10.9   c0.4,0,0.8-0.4,0.8-0.8v-7.7h3.3c0.4,0,0.7-0.2,0.8-0.6l7.8-32.5c0.1-0.2,0-0.5-0.1-0.7c-0.1-0.2-0.4-0.3-0.6-0.3h-22.9V250.9h10.7   c0.4,0,0.8-0.4,0.8-0.8v-13.7h23.4c0.3,0,0.6-0.2,0.7-0.5c0.1-0.3,0.1-0.6-0.2-0.9l-71-71h-0.2v72.3h0.2v0h45.5v12.9H151.9v1.6   h106.8V354.7z M224.8,234.8v-68.5l68.5,68.5H224.8z M270.5,395.6h-21.9v-6.9h21.9V395.6z M282.2,356.2l-7.4,30.9h-30.4l-7.4-30.9   H282.2z"/>
	<polygon points="153.5,234.9 153.5,165.4 223,165.4 223,164.1 224.6,164.1 224.6,164 152.1,164 152.1,236.4 223,236.4 223,234.9     "/>
	<polygon points="223,164.1 223,165.4 223.1,165.4 223.1,234.9 223,234.9 223,236.4 224.6,236.4 224.6,164.1  "/>
	<path d="M394.2,241.8h9.9c2.8,0,5-2.2,5-5v-47.2h-7.9v44.3h-4.2v-44.3h-7.9v47.2C389.2,239.6,391.5,241.8,394.2,241.8z M390.6,191   h5.2v44.3h6.9V191h5.2v45.9c0,2-1.7,3.6-3.7,3.6h-9.9c-2,0-3.7-1.7-3.7-3.6V191z"/>
	<path d="M421.5,219.7l5.3,22.2h8.9v-52.2h-7.9V210l-5-20.3h-9.2v52.2h7.9V219.7z M420.1,213.8v26.6H415V191h6.8l6.1,24.8l1.4-0.2   V191h5.2v49.5h-6.5l-6.4-26.8L420.1,213.8z"/>
	<path d="M446.7,235.3h6.9v-39.1h-6.9V235.3z M448.1,197.5h4.1v36.4h-4.1V197.5z"/>
	<path d="M460.1,236.9v-42.2c0-2.8-2.3-5-5-5h-14.9v52.2h14.9C457.9,241.8,460.1,239.6,460.1,236.9z M441.5,191h13.5   c2,0,3.7,1.6,3.7,3.7v42.2c0,2-1.7,3.6-3.7,3.6h-13.5V191z"/>
	<path d="M482.8,233.9h-10.3v-15.8h6.9v-7.9h-6.9v-12.6h9.8v-7.9h-17.7v52.2h18.2V233.9z M481.4,240.5H466V191h15v5.2h-9.8v15.4h6.9   v5.2h-6.9v18.6h10.3V240.5z"/>
	<path d="M493.1,213.7h6.1v-17.6h-6.1V213.7z M494.4,197.5h3.4v14.8h-3.4V197.5z"/>
	<path d="M494.4,220.3h4.1v21.6h7.9v-21.6c0-1.6-0.8-3.4-2.2-4.4c0.9-0.8,1.4-2,1.4-3.5v-17.7c0-2.8-2.3-5-5-5h-14.1v52.2h7.9V220.3   z M493.1,240.5h-5.2V191h12.8c2,0,3.7,1.6,3.7,3.7v17.7c0,1.4-0.7,2.6-1.8,2.9l0,1.3c1.6,0.4,2.5,2.1,2.5,3.6v20.2h-5.2v-21.6h-6.9   V240.5z"/>
	<path d="M400.2,248.9h-7.6c-2.2,0-4,1.9-4,4v32.5c0,2.2,1.8,4,4,4h7.6c2.2,0,4-1.8,4-4v-9.2h-6.4v6.8h-2.9v-27.7h2.9v6.7h6.4v-9.1   C404.2,250.7,402.4,248.9,400.2,248.9z M402.8,260.6h-3.7v-6.7h-5.6v30.4h5.6v-6.8h3.7v7.8c0,1.4-1.2,2.6-2.7,2.6h-7.6   c-1.4,0-2.7-1.2-2.7-2.6v-32.5c0-1.4,1.2-2.7,2.7-2.7h7.6c1.5,0,2.7,1.2,2.7,2.7V260.6z"/>
	<path d="M411.5,284.3h5.6v-30.4h-5.6V284.3z M412.9,255.3h2.9V283h-2.9V255.3z"/>
	<path d="M418.1,248.9h-7.6c-2.2,0-4,1.9-4,4v32.5c0,2.2,1.8,4,4,4h7.6c2.2,0,4-1.8,4-4v-32.5C422.2,250.7,420.4,248.9,418.1,248.9z    M420.8,285.4c0,1.4-1.2,2.6-2.7,2.6h-7.6c-1.4,0-2.7-1.2-2.7-2.6v-32.5c0-1.4,1.2-2.7,2.7-2.7h7.6c1.5,0,2.7,1.2,2.7,2.7V285.4z"/>
	<path d="M436.2,263.4l-3.6-14.5h-7.4v40.5h6.4v-15.9l3.8,15.9h7.1v-40.5h-6.4V263.4z M437.6,269v-18.8h3.7V288h-4.7l-4.9-20.5   l-1.4,0.2V288h-3.7v-37.7h4.9l4.7,18.9L437.6,269z"/>
	<path d="M457.4,248.9h-7.6c-2.4,0-4,1.7-4,4v14.8c0,2.2,1.8,4,4,4h5.2V283h-2.9v-6.8h-6.4v9.2c0,2.2,1.9,4,4,4h7.6c2.2,0,4-1.8,4-4   v-16c0-2.2-1.8-4-4-4h-5.2v-10h2.9v6.5h6.4v-8.9C461.4,250.6,459.7,248.9,457.4,248.9z M460,260.4h-3.7v-6.5h-5.6v12.8h6.6   c1.5,0,2.7,1.2,2.7,2.7v16c0,1.4-1.2,2.6-2.7,2.6h-7.6c-1.4,0-2.7-1.2-2.7-2.6v-7.8h3.7v6.8h5.6v-14h-6.6c-1.6,0-2.7-1.3-2.7-2.6   v-14.8c0-1.6,1.1-2.7,2.7-2.7h7.6c1.5,0,2.7,1.1,2.7,2.6V260.4z"/>
	<path d="M462.8,255.3h4.5v34.1h6.4v-34.1h4.5v-6.4h-15.3V255.3z M464.2,250.2h12.6v3.7h-4.5V288h-3.7v-34.1h-4.5V250.2z"/>
	<path d="M493.7,269.2c0.6-0.6,1-1.6,1-2.7v-13.6c0-2.2-1.8-4-4-4h-11v40.5h6.4v-16.6h2.9v16.6h6.4v-16.8   C495.3,271.3,494.7,270,493.7,269.2z M493.9,288h-3.7v-16.6h-5.6V288H481v-37.7h9.7c1.5,0,2.7,1.2,2.7,2.7v13.6   c0,1-0.5,1.9-1.2,2.1l0,1.3c1.2,0.3,1.8,1.5,1.8,2.6V288z"/>
	<path d="M484.6,267.7h5v-13.8h-5V267.7z M486,255.3h2.3v11.1H486V255.3z"/>
	<path d="M513.8,285.4v-36.5h-6.4V283h-2.9v-34.1h-6.4v36.5c0,2.2,1.8,4,4,4h7.6C511.9,289.4,513.8,287.6,513.8,285.4z M499.5,285.4   v-35.1h3.7v34.1h5.6v-34.1h3.7v35.1c0,1.4-1.2,2.6-2.7,2.6h-7.6C500.7,288,499.5,286.8,499.5,285.4z"/>
	<path d="M520.9,289.4h7.6c2.2,0,4-1.8,4-4v-9.2h-6.4v6.8h-2.9v-27.7h2.9v6.7h6.4v-9.1c0-2.2-1.8-4-4-4h-7.6c-2.2,0-4,1.9-4,4v32.5   C516.9,287.5,518.7,289.4,520.9,289.4z M518.2,252.9c0-1.4,1.2-2.7,2.7-2.7h7.6c1.5,0,2.7,1.2,2.7,2.7v7.7h-3.7v-6.7h-5.6v30.4h5.6   v-6.8h3.7v7.8c0,1.4-1.2,2.6-2.7,2.6h-7.6c-1.4,0-2.7-1.2-2.7-2.6V252.9z"/>
	<path d="M537.6,289.4h6.4v-34.1h4.5v-6.4h-15.3v6.4h4.5V289.4z M534.5,253.9v-3.7h12.6v3.7h-4.5V288H539v-34.1H534.5z"/>
	<path d="M556.3,248.9h-6.4v40.5h6.4V248.9z M555,288h-3.7v-37.7h3.7V288z"/>
	<path d="M563.5,289.4h7.6c2.2,0,4-1.8,4-4v-32.5c0-2.2-1.8-4-4-4h-7.6c-2.2,0-4,1.9-4,4v32.5C559.4,287.5,561.3,289.4,563.5,289.4z    M560.8,252.9c0-1.4,1.2-2.7,2.7-2.7h7.6c1.5,0,2.7,1.2,2.7,2.7v32.5c0,1.4-1.2,2.6-2.7,2.6h-7.6c-1.4,0-2.7-1.2-2.7-2.6V252.9z"/>
	<path d="M570.1,253.9h-5.6v30.4h5.6V253.9z M568.7,283h-2.9v-27.7h2.9V283z"/>
	<path d="M584.6,273.5l3.8,15.9h7.1v-40.5h-6.4v14.5l-3.6-14.5h-7.4v40.5h6.4V273.5z M583.2,267.7V288h-3.7v-37.7h4.9l4.7,18.9   l1.4-0.2v-18.8h3.7V288h-4.7l-4.9-20.5L583.2,267.7z"/>
	<polygon points="506,171.4 496.9,180.5 496.9,180.5  "/>
	<polygon points="494.9,180.5 504.1,171.4 494.9,180.5  "/>
	<polygon points="544.4,162.3 545.8,160.9 516.5,160.9 515.1,162.3  "/>
	<polygon points="575.7,162.3 566.6,171.4 577,160.9 547.7,160.9 546.4,162.3  "/>
	<polygon points="577.6,162.3 568.5,171.4 577.6,162.3  "/>
	<polygon points="526.2,180.5 528.1,180.5 546.4,162.3 547.7,160.9 545.8,160.9 544.4,162.3  "/>
	<polygon points="557.4,180.5 566.6,171.4 557.4,180.5  "/>
	<polygon points="606.9,162.3 597.8,171.4 608.3,160.9 579,160.9 577.6,162.3  "/>
	<polygon points="568.5,171.4 559.4,180.5 559.4,180.5  "/>
	<polygon points="608.9,162.3 599.7,171.4 608.9,162.3  "/>
	<polygon points="557.4,180.5 559.4,180.5 568.5,171.4 577.6,162.3 577.6,162.3 579,160.9 577,160.9 566.6,171.4  "/>
	<polygon points="463.7,180.5 472.8,171.4 463.7,180.5  "/>
	<polygon points="474.8,171.4 465.6,180.5 465.6,180.5  "/>
	<polygon points="515.1,162.3 506,171.4 515.1,162.3  "/>
	<polygon points="513.2,162.3 504.1,171.4 514.6,160.9 485.3,160.9 483.9,162.3  "/>
	<polygon points="494.9,180.5 496.9,180.5 506,171.4 515.1,162.3 515.1,162.3 516.5,160.9 514.6,160.9 504.1,171.4  "/>
	<polygon points="450.7,162.3 441.6,171.4 452.1,160.9 422.8,160.9 421.4,162.3  "/>
	<polygon points="452.6,162.3 443.5,171.4 452.6,162.3  "/>
	<polygon points="443.5,171.4 434.4,180.5 434.4,180.5  "/>
	<polygon points="432.5,180.5 441.6,171.4 432.5,180.5  "/>
	<polygon points="481.9,162.3 472.8,171.4 483.3,160.9 454,160.9 452.6,162.3  "/>
	<polygon points="483.9,162.3 474.8,171.4 483.9,162.3  "/>
	<polygon points="463.7,180.5 465.6,180.5 474.8,171.4 483.9,162.3 483.9,162.3 485.3,160.9 483.3,160.9 472.8,171.4  "/>
	<polygon points="432.5,180.5 434.4,180.5 443.5,171.4 452.6,162.3 452.6,162.3 454,160.9 452.1,160.9 441.6,171.4  "/>
	<polygon points="604.5,227.2 613.7,218 604.5,227.2  "/>
	<polygon points="622.8,242.1 613.7,251.2 622.8,242.1  "/>
	<polygon points="613.7,220 604.5,229.1 604.5,229.1  "/>
	<polygon points="622.8,240.2 613.7,249.3 624.2,238.8 624.2,209.5 622.8,210.9  "/>
	<polygon points="622.8,273.3 613.7,282.5 622.8,273.3  "/>
	<polygon points="604.5,258.4 613.7,249.3 604.5,258.4  "/>
	<polygon points="613.7,251.2 604.5,260.3 604.5,260.3  "/>
	<polygon points="622.8,271.4 613.7,280.5 624.2,270 624.2,240.7 622.8,242.1  "/>
	<polygon points="604.5,258.4 604.5,260.3 613.7,251.2 622.8,242.1 622.8,242.1 624.2,240.7 624.2,238.8 613.7,249.3  "/>
	<polygon points="360.4,192 360.4,192 375.3,177.2  "/>
	<polygon points="360.4,190.1 360.4,162.3 388.2,162.3 389.6,160.9 359,160.9 359,191.5 374.3,176.2  "/>
	<polygon points="360.4,221.4 360.4,192 359,193.4 359,222.7 369.5,212.2  "/>
	<polygon points="390.2,162.3 419.5,162.3 420.8,160.9 391.5,160.9 375.3,177.2  "/>
	<polygon points="360.4,223.3 360.4,223.3 369.5,214.2  "/>
	<polygon points="388.2,162.3 388.2,162.3 374.3,176.2  "/>
	<polygon points="401.2,180.5 403.2,180.5 421.4,162.3 422.8,160.9 420.8,160.9 419.5,162.3  "/>
	<polygon points="360.4,192 375.3,177.2 391.5,160.9 389.6,160.9 388.2,162.3 388.2,162.3 374.3,176.2 359,191.5 359,193.4    360.4,192  "/>
	<polygon points="599.7,171.4 590.6,180.5 590.6,180.5  "/>
	<polygon points="604.5,195.9 613.7,186.8 604.5,195.9  "/>
	<polygon points="613.7,188.7 604.5,197.9 604.5,197.9  "/>
	<polygon points="588.7,180.5 597.8,171.4 588.7,180.5  "/>
	<polygon points="622.8,162.3 622.8,177.7 624.2,176.3 624.2,160.9 610.2,160.9 608.9,162.3  "/>
	<polygon points="588.7,180.5 590.6,180.5 599.7,171.4 608.9,162.3 608.9,162.3 610.2,160.9 608.3,160.9 597.8,171.4  "/>
	<polygon points="622.8,177.7 622.8,177.7 613.7,186.8  "/>
	<polygon points="622.8,210.9 613.7,220 622.8,210.9  "/>
	<polygon points="622.8,179.6 622.8,208.9 613.7,218 624.2,207.5 624.2,178.2 613.7,188.7  "/>
	<polygon points="604.5,227.2 604.5,229.1 613.7,220 622.8,210.9 622.8,210.9 624.2,209.5 624.2,207.5 613.7,218  "/>
	<polygon points="622.8,177.7 613.7,186.8 604.5,195.9 604.5,197.9 613.7,188.7 624.2,178.2 624.2,176.3 622.8,177.7  "/>
	<polygon points="378.7,267.5 369.5,276.7 378.7,267.5  "/>
	<polygon points="360.4,254.5 369.5,245.4 359,255.9 359,285.2 360.4,283.8  "/>
	<polygon points="369.5,274.7 378.7,265.6 378.7,265.6  "/>
	<polygon points="360.4,252.6 369.5,243.5 360.4,252.6  "/>
	<polygon points="547.3,315.7 556.4,306.6 547.3,315.7  "/>
	<polygon points="587.6,306.6 596.7,297.4 596.7,297.4  "/>
	<polygon points="598.7,297.4 589.6,306.6 598.7,297.4  "/>
	<polygon points="549.2,315.7 558.3,306.6 547.8,317.1 577.1,317.1 578.5,315.7  "/>
	<polygon points="369.5,243.5 378.7,234.3 378.7,234.3  "/>
	<polygon points="369.5,212.2 378.7,203.1 378.7,203.1  "/>
	<polygon points="378.7,236.3 369.5,245.4 378.7,236.3  "/>
	<polygon points="378.7,205 369.5,214.2 378.7,205  "/>
	<polygon points="360.4,223.3 359,224.7 359,254 360.4,252.6  "/>
	<polygon points="360.4,223.3 369.5,214.2 378.7,205 378.7,203.1 369.5,212.2 359,222.7 359,224.7 360.4,223.3  "/>
	<polygon points="378.7,236.3 378.7,234.3 369.5,243.5 360.4,252.6 360.4,252.6 359,254 359,255.9 369.5,245.4  "/>
	<polygon points="507.9,315.7 507.9,317.1 514.6,317.1 516,315.7  "/>
	<polygon points="536.2,297.4 527.1,306.6 536.2,297.4  "/>
	<polygon points="525.1,306.6 534.3,297.4 534.3,297.4  "/>
	<polygon points="609.7,315.7 616.3,309.2 609.7,315.7  "/>
	<polygon points="622.8,315.7 611.7,315.7 617.2,310.1 610.3,317.1 624.2,317.1 624.2,303.2 622.8,304.6  "/>
	<polygon points="604.5,289.6 613.7,280.5 604.5,289.6  "/>
	<polygon points="580.4,315.7 589.6,306.6 579.1,317.1 608.4,317.1 609.7,315.7  "/>
	<polygon points="613.7,282.5 604.5,291.6 604.5,291.6  "/>
	<polygon points="622.8,304.6 617.2,310.1 622.8,304.6  "/>
	<polygon points="578.5,315.7 587.6,306.6 578.5,315.7  "/>
	<polygon points="622.8,302.6 616.3,309.2 624.2,301.3 624.2,272 622.8,273.3  "/>
	<polygon points="604.5,289.6 604.5,291.6 613.7,282.5 622.8,273.3 622.8,273.3 624.2,272 624.2,270 613.7,280.5  "/>
	<polygon points="598.7,297.4 596.7,297.4 587.6,306.6 578.5,315.7 578.5,315.7 577.1,317.1 579.1,317.1 589.6,306.6  "/>
	<polygon points="609.7,315.7 609.7,315.7 608.4,317.1 610.3,317.1 617.2,310.1 622.8,304.6 622.8,304.6 624.2,303.2 624.2,301.3    616.3,309.2  "/>
	<polygon points="455.5,315.7 464.6,306.6 454.1,317.1 475.3,317.1 475.3,315.7  "/>
	<polygon points="453.5,315.7 462.7,306.6 453.5,315.7  "/>
	<polygon points="505,297.4 503,297.4 484.8,315.7 486.7,315.7  "/>
	<polygon points="567.4,297.4 558.3,306.6 567.4,297.4  "/>
	<polygon points="518,315.7 527.1,306.6 516.6,317.1 545.9,317.1 547.3,315.7  "/>
	<polygon points="556.4,306.6 565.5,297.4 565.5,297.4  "/>
	<polygon points="516,315.7 525.1,306.6 516,315.7  "/>
	<polygon points="567.4,297.4 565.5,297.4 556.4,306.6 547.3,315.7 547.3,315.7 545.9,317.1 547.8,317.1 558.3,306.6  "/>
	<polygon points="536.2,297.4 534.3,297.4 525.1,306.6 516,315.7 516,315.7 514.6,317.1 516.6,317.1 527.1,306.6  "/>
	<polygon points="422.3,315.7 431.4,306.6 422.3,315.7  "/>
	<polygon points="462.7,306.6 471.8,297.4 471.8,297.4  "/>
	<polygon points="424.2,315.7 433.3,306.6 422.9,317.1 452.2,317.1 453.5,315.7  "/>
	<polygon points="473.7,297.4 464.6,306.6 473.7,297.4  "/>
	<polygon points="473.7,297.4 471.8,297.4 462.7,306.6 453.5,315.7 453.5,315.7 452.2,317.1 454.1,317.1 464.6,306.6  "/>
	<polygon points="358.4,317.1 359,317.1 359,316.5  "/>
	<polygon points="360.4,315.1 360.4,315.1 360.4,315.1  "/>
	<polygon points="411.2,297.4 402.1,306.6 411.2,297.4  "/>
	<polygon points="400.2,306.6 409.3,297.4 409.3,297.4  "/>
	<polygon points="361.7,315.7 370.9,306.6 360.4,317.1 389.7,317.1 391,315.7  "/>
	<polygon points="360.4,283.8 369.5,274.7 360.4,283.8  "/>
	<polygon points="380,297.4 370.9,306.6 380,297.4  "/>
	<polygon points="360.4,285.8 369.5,276.7 359,287.1 359,316.5 360.4,315.1  "/>
	<polygon points="360.4,315.1 378.7,296.8 378.7,296.8  "/>
	<polygon points="378.7,267.5 378.7,265.6 369.5,274.7 360.4,283.8 360.4,283.8 359,285.2 359,287.1 369.5,276.7  "/>
	<polygon points="380,297.4 378.7,297.4 378.7,296.8 360.4,315.1 360.4,315.1 360.4,315.1 359,316.5 359,317.1 360.4,317.1    370.9,306.6  "/>
	<polygon points="431.4,306.6 440.5,297.4 440.5,297.4  "/>
	<polygon points="442.5,297.4 433.3,306.6 442.5,297.4  "/>
	<polygon points="391,315.7 400.2,306.6 391,315.7  "/>
	<polygon points="393,315.7 402.1,306.6 391.6,317.1 420.9,317.1 422.3,315.7  "/>
	<polygon points="442.5,297.4 440.5,297.4 431.4,306.6 422.3,315.7 422.3,315.7 420.9,317.1 422.9,317.1 433.3,306.6  "/>
	<polygon points="411.2,297.4 409.3,297.4 400.2,306.6 391,315.7 391,315.7 389.7,317.1 391.6,317.1 402.1,306.6  "/>
	<polygon points="524.8,181.9 526.2,180.5 496.9,180.5 496.9,180.5 495.5,181.9  "/>
	<polygon points="556.1,181.9 557.4,180.5 528.1,180.5 526.8,181.9  "/>
	<polygon points="526.8,181.9 528.1,180.5 526.2,180.5 524.8,181.9  "/>
	<polygon points="587.3,181.9 588.7,180.5 559.4,180.5 559.4,180.5 558,181.9  "/>
	<polygon points="556.1,181.9 558,181.9 559.4,180.5 557.4,180.5 557.4,180.5  "/>
	<polygon points="493.6,181.9 494.9,180.5 465.6,180.5 465.6,180.5 464.3,181.9  "/>
	<polygon points="493.6,181.9 495.5,181.9 496.9,180.5 494.9,180.5 494.9,180.5  "/>
	<polygon points="431.1,181.9 432.5,180.5 403.2,180.5 401.8,181.9  "/>
	<polygon points="462.3,181.9 463.7,180.5 434.4,180.5 434.4,180.5 433,181.9  "/>
	<polygon points="462.3,181.9 464.3,181.9 465.6,180.5 463.7,180.5 463.7,180.5  "/>
	<polygon points="431.1,181.9 433,181.9 434.4,180.5 432.5,180.5 432.5,180.5  "/>
	<polygon points="603.2,259.8 604.5,258.4 604.5,229.1 604.5,229.1 603.2,230.5  "/>
	<polygon points="603.2,291 604.5,289.6 604.5,260.3 604.5,260.3 603.2,261.7  "/>
	<polygon points="603.2,259.8 603.2,261.7 604.5,260.3 604.5,258.4 604.5,258.4  "/>
	<polygon points="378.7,203.1 380,201.7 380,181.9 399.8,181.9 401.2,180.5 378.7,180.5  "/>
	<polygon points="401.8,181.9 403.2,180.5 401.2,180.5 399.8,181.9  "/>
	<polygon points="603.2,181.9 603.2,197.3 604.5,195.9 604.5,195.9 604.5,180.5 590.6,180.5 590.6,180.5 589.2,181.9  "/>
	<polygon points="587.3,181.9 589.2,181.9 590.6,180.5 588.7,180.5 588.7,180.5  "/>
	<polygon points="604.5,227.2 604.5,197.9 603.2,199.2 603.2,228.5  "/>
	<polygon points="603.2,228.5 603.2,230.5 604.5,229.1 604.5,227.2 604.5,227.2  "/>
	<polygon points="603.2,199.2 604.5,197.9 604.5,197.9 604.5,195.9 603.2,197.3  "/>
	<polygon points="380,234.9 378.7,236.3 378.7,265.6 378.7,265.6 380,264.2  "/>
	<polygon points="568.8,296.1 567.4,297.4 596.7,297.4 596.7,297.4 598.1,296.1  "/>
	<polygon points="380,203.7 378.7,205 378.7,205 378.7,234.3 378.7,234.3 380,233  "/>
	<polygon points="380,201.7 378.7,203.1 378.7,203.1 378.7,205 380,203.7  "/>
	<polygon points="380,234.9 380,233 378.7,234.3 378.7,236.3 378.7,236.3  "/>
	<polygon points="506.3,296.1 505,297.4 534.3,297.4 534.3,297.4 535.6,296.1  "/>
	<polygon points="603.2,296.1 600.1,296.1 598.7,297.4 604.5,297.4 604.5,291.6 604.5,291.6 603.2,293  "/>
	<polygon points="603.2,291 603.2,293 604.5,291.6 604.5,289.6 604.5,289.6  "/>
	<polygon points="600.1,296.1 598.1,296.1 596.7,297.4 598.7,297.4 598.7,297.4  "/>
	<polygon points="475.1,296.1 473.7,297.4 503,297.4 504.4,296.1  "/>
	<polygon points="504.4,296.1 503,297.4 505,297.4 506.3,296.1  "/>
	<polygon points="537.6,296.1 536.2,297.4 565.5,297.4 565.5,297.4 566.9,296.1  "/>
	<polygon points="568.8,296.1 566.9,296.1 565.5,297.4 567.4,297.4 567.4,297.4  "/>
	<polygon points="537.6,296.1 535.6,296.1 534.3,297.4 536.2,297.4 536.2,297.4  "/>
	<polygon points="443.8,296.1 442.5,297.4 471.8,297.4 471.8,297.4 473.1,296.1  "/>
	<polygon points="475.1,296.1 473.1,296.1 471.8,297.4 473.7,297.4 473.7,297.4  "/>
	<polygon points="381.4,296.1 380,297.4 409.3,297.4 409.3,297.4 410.7,296.1  "/>
	<polygon points="380,296.1 380,266.2 378.7,267.5 378.7,296.8 378.7,296.8 379.4,296.1  "/>
	<polygon points="380,266.2 380,264.2 378.7,265.6 378.7,267.5 378.7,267.5  "/>
	<polygon points="381.4,296.1 380,296.1 379.4,296.1 378.7,296.8 378.7,297.4 380,297.4 380,297.4  "/>
	<polygon points="412.6,296.1 411.2,297.4 440.5,297.4 440.5,297.4 441.9,296.1  "/>
	<polygon points="443.8,296.1 441.9,296.1 440.5,297.4 442.5,297.4 442.5,297.4  "/>
	<polygon points="412.6,296.1 410.7,296.1 409.3,297.4 411.2,297.4 411.2,297.4  "/>
	<rect x="475.3" y="317.1" width="1.4" height="91"/>
	<rect x="506.5" y="317.1" width="1.4" height="91"/>
	<polygon points="486.7,315.7 485.3,317.1 506.5,317.1 507.9,317.1 507.9,315.7  "/>
	<polygon points="483.4,317.1 484.8,315.7 475.3,315.7 475.3,317.1 476.7,317.1  "/>
	<polygon points="486.7,315.7 484.8,315.7 483.4,317.1 485.3,317.1  "/>
	<g>
		<polygon class="st5" points="692.4,447 651.9,476.9 786.5,476.9 746,447   "/>
		<rect x="805.8" y="516.3" class="st0" width="121.7" height="23.9"/>
		<polygon class="st0" points="476.7,540.2 506.5,540.2 507.9,540.2 590.7,540.2 590.7,516.3 507.9,516.3 506.5,516.3 476.7,516.3     475.3,516.3 430.2,516.3 430.2,540.2 475.3,540.2   "/>
		<rect x="608.4" y="542.1" class="st5" width="19.4" height="33.8"/>
		<rect x="608.4" y="516.3" class="st0" width="19.4" height="23.9"/>
		<path class="st0" d="M507.9,431.1h-1.4h-29.9h-1.4h-58.8v281.8h58.8h1.4h29.9h1.4h432.7V431.1h-212h-1l19,14h182.7v51.5H805.8v8.2    v1.9v7.8h123.5v25.7v1.9v156H789.4V584.4H627.8v-6.7h-21.2v-35.7v-1.9v-25.7h21.2v-7.8v-1.9v-8.2H507.9h-1.4h-29.9h-1.4h-46.9    v-51.5h46.9h1.4h29.9h1.4h183.9l19-14H507.9z M775.9,670.9c0,0.5-0.4,0.9-0.9,0.9c-0.5,0-0.9-0.4-0.9-0.9v-17.5    c0-0.5,0.4-0.9,0.9-0.9c0.5,0,0.9,0.4,0.9,0.9V670.9z M775.9,635.9c0,0.5-0.4,0.9-0.9,0.9c-0.5,0-0.9-0.4-0.9-0.9v-17.5    c0-0.5,0.4-0.9,0.9-0.9c0.5,0,0.9,0.4,0.9,0.9V635.9z M766.3,591.3h9.5v9.5c0,0.5-0.4,0.9-0.9,0.9c-0.5,0-0.9-0.4-0.9-0.9v-7.7    h-7.7c-0.5,0-0.9-0.4-0.9-0.9C765.4,591.7,765.8,591.3,766.3,591.3z M766.3,696.2h7.7v-7.7c0-0.5,0.4-0.9,0.9-0.9    c0.5,0,0.9,0.4,0.9,0.9v9.5h-9.5c-0.5,0-0.9-0.4-0.9-0.9C765.4,696.6,765.8,696.2,766.3,696.2z M732.9,591.3h16.7    c0.5,0,0.9,0.4,0.9,0.9c0,0.5-0.4,0.9-0.9,0.9h-16.7c-0.5,0-0.9-0.4-0.9-0.9C732,591.7,732.4,591.3,732.9,591.3z M732.9,696.2    h16.7c0.5,0,0.9,0.4,0.9,0.9c0,0.5-0.4,0.9-0.9,0.9h-16.7c-0.5,0-0.9-0.4-0.9-0.9C732,696.6,732.4,696.2,732.9,696.2z     M699.6,591.3h16.7c0.5,0,0.9,0.4,0.9,0.9c0,0.5-0.4,0.9-0.9,0.9h-16.7c-0.5,0-0.9-0.4-0.9-0.9C698.6,591.7,699,591.3,699.6,591.3    z M699.6,696.2h16.7c0.5,0,0.9,0.4,0.9,0.9c0,0.5-0.4,0.9-0.9,0.9h-16.7c-0.5,0-0.9-0.4-0.9-0.9    C698.6,696.6,699,696.2,699.6,696.2z M666.2,591.3h16.7c0.5,0,0.9,0.4,0.9,0.9c0,0.5-0.4,0.9-0.9,0.9h-16.7    c-0.5,0-0.9-0.4-0.9-0.9C665.2,591.7,665.7,591.3,666.2,591.3z M666.2,696.2h16.7c0.5,0,0.9,0.4,0.9,0.9c0,0.5-0.4,0.9-0.9,0.9    h-16.7c-0.5,0-0.9-0.4-0.9-0.9C665.2,696.6,665.7,696.2,666.2,696.2z M632.8,591.3h16.7c0.5,0,0.9,0.4,0.9,0.9    c0,0.5-0.4,0.9-0.9,0.9h-16.7c-0.5,0-0.9-0.4-0.9-0.9C631.9,591.7,632.3,591.3,632.8,591.3z M632.8,696.2h16.7    c0.5,0,0.9,0.4,0.9,0.9c0,0.5-0.4,0.9-0.9,0.9h-16.7c-0.5,0-0.9-0.4-0.9-0.9C631.9,696.6,632.3,696.2,632.8,696.2z M606.6,591.3    h9.5c0.5,0,0.9,0.4,0.9,0.9c0,0.5-0.4,0.9-0.9,0.9h-7.7v7.7c0,0.5-0.4,0.9-0.9,0.9c-0.5,0-0.9-0.4-0.9-0.9V591.3z M606.6,618.3    c0-0.5,0.4-0.9,0.9-0.9c0.5,0,0.9,0.4,0.9,0.9v17.5c0,0.5-0.4,0.9-0.9,0.9c-0.5,0-0.9-0.4-0.9-0.9V618.3z M606.6,653.4    c0-0.5,0.4-0.9,0.9-0.9c0.5,0,0.9,0.4,0.9,0.9v17.5c0,0.5-0.4,0.9-0.9,0.9c-0.5,0-0.9-0.4-0.9-0.9V653.4z M606.6,688.5    c0-0.5,0.4-0.9,0.9-0.9c0.5,0,0.9,0.4,0.9,0.9v7.7h7.7c0.5,0,0.9,0.4,0.9,0.9c0,0.5-0.4,0.9-0.9,0.9h-9.5V688.5z M475.3,514.5h1.4    h29.9h1.4h84.7v25.7v1.9v156h-84.7h-1.4h-29.9h-1.4h-46.9v-156v-1.9v-25.7H475.3z"/>
		<polygon class="st4" points="476.7,696.2 506.5,696.2 507.9,696.2 590.7,696.2 590.7,542.1 507.9,542.1 506.5,542.1 476.7,542.1     475.3,542.1 430.2,542.1 430.2,696.2 475.3,696.2   "/>
		<polygon class="st5" points="927.4,494.7 927.4,447 752.9,447 749.1,447 789.7,476.9 805.8,476.9 805.8,494.7   "/>
		<path class="st6" d="M404.6,721.7V422.3c0-1.7,1.4-3.2,3.2-3.2h67.5h1.4h29.9h1.4h202.6c-0.2-0.7-0.3-1.5-0.3-2.3    c0-2.8,1.3-5.3,3.3-7H507.9h-1.4h-29.9h-1.4h-67.5c-6.9,0-12.5,5.6-12.5,12.5V723h9.6C404.7,722.6,404.6,722.1,404.6,721.7z"/>
		<polygon class="st0" points="629.7,496.6 629.7,504.8 803.9,504.8 803.9,496.6 803.9,494.7 803.9,478.7 629.7,478.7 629.7,494.7       "/>
		<polygon class="st5" points="689.3,447 507.9,447 506.5,447 476.7,447 475.3,447 430.2,447 430.2,494.7 475.3,494.7 476.7,494.7     506.5,494.7 507.9,494.7 627.8,494.7 627.8,476.9 648.7,476.9 689.3,447   "/>
		<polygon class="st7" points="791.2,582.6 803.9,582.6 803.9,542.1 803.9,540.2 803.9,516.3 803.9,514.5 803.9,506.6 629.7,506.6     629.7,514.5 629.7,516.3 629.7,540.2 629.7,542.1 629.7,575.9 629.7,577.8 629.7,582.6 789.4,582.6   "/>
		<polygon class="st2" points="927.4,542.1 805.8,542.1 805.8,584.4 791.2,584.4 791.2,696.2 927.4,696.2   "/>
		<path class="st5" d="M678.6,736.6c-5.1,0-9.2,4.1-9.2,9.2c0,5.1,4.1,9.2,9.2,9.2c5.1,0,9.2-4.1,9.2-9.2    C687.7,740.7,683.6,736.6,678.6,736.6z"/>
		<polygon class="st3" points="645.1,765 634.3,830.4 722.8,830.4 712,765   "/>
		<path class="st0" d="M507.9,724.8h-1.4h-29.9h-1.4h-67.5h-12.5v25.9c0,6.9,5.6,12.5,12.5,12.5h67.5h1.4h29.9h1.4h135.6h70.1h235.7    c6.9,0,12.5-5.6,12.5-12.5v-25.9h-12.5H507.9z M678.6,756.8c-6.1,0-11-5-11-11c0-6.1,5-11,11-11c6.1,0,11,5,11,11    C689.6,751.9,684.7,756.8,678.6,756.8z"/>
		<path class="st6" d="M949.3,409.9H716.5c-2.8,1.1-4.8,3.8-4.8,7c0,0.8,0.1,1.6,0.4,2.3h237.3c1.7,0,3.2,1.4,3.2,3.2v299.3    c0,0.5-0.1,0.9-0.3,1.3h9.6V422.3C961.8,415.5,956.2,409.9,949.3,409.9z"/>
		<path class="st0" d="M584.3,832.3c-7.9,0-14.3,6.4-14.3,14.3v5.1h217.2v-5.1c0-7.9-6.4-14.3-14.3-14.3H725h-93H584.3z"/>
		<rect x="476.7" y="765" class="st3" width="29.9" height="86.6"/>
		<polygon class="st3" points="716.5,429.2 721.9,429.2 719.2,427.2   "/>
		<path class="st3" d="M714,424.2c-1.2-0.8-2.1-1.9-2.8-3.2H507.9h-1.4h-29.9h-1.4h-67.5c-0.7,0-1.3,0.6-1.3,1.3v299.3    c0,0.7,0.6,1.3,1.3,1.3h67.5h1.4h29.9h1.4h441.4c0.7,0,1.3-0.6,1.3-1.3V422.3c0-0.7-0.6-1.3-1.3-1.3H713c1.3,2,3.6,3.3,6.2,3.3    c2.2,0,4.3-1,5.7-2.7l1.4,0.7c-0.5,0.7-1.2,1.3-2,1.8l-2.4,1.7l-1.4,0.1l4.4,3.3h3.5h213.9v285.5H507.9h-1.4h-29.9h-1.4h-60.6    V429.2h60.6h1.4h29.9h1.4h205.4l4.4-3.2l-1.4-0.1L714,424.2z"/>
		<polygon class="st0" points="713.9,431.1 694.9,445.1 694.9,445.1 743.5,445.1 743.5,445.1 724.5,431.1   "/>
		<path d="M949.3,408H720h-2.7H507.9h-1.4h-29.9h-1.4h-67.5c-7.9,0-14.3,6.4-14.3,14.3V723v1.9v25.9c0,7.9,6.4,14.3,14.3,14.3h67.5    v86.6v1.6h32.6v-1.6V765h135.3l-10.8,65.4h-48.1c-8.9,0-16.2,7.2-16.2,16.2v5.1v1.8H789v-1.8v-5.1c0-8.9-7.3-16.2-16.2-16.2h-48.1    L713.9,765h235.4c7.9,0,14.3-6.4,14.3-14.3v-25.9V723V422.3C963.7,414.4,957.2,408,949.3,408z M395.3,422.3    c0-6.9,5.6-12.5,12.5-12.5h67.5h1.4h29.9h1.4h205.6c-2,1.7-3.3,4.2-3.3,7c0,0.8,0.1,1.6,0.3,2.3H507.9h-1.4h-29.9h-1.4h-67.5    c-1.7,0-3.2,1.4-3.2,3.2v299.3c0,0.5,0.1,0.9,0.3,1.3h-9.6V422.3z M789.7,476.9L749.1,447h3.8h174.5v47.7H805.8v-17.9H789.7z     M627.8,476.9v17.9H507.9h-1.4h-29.9h-1.4h-45.1V447h45.1h1.4h29.9h1.4h181.4h0l-40.5,29.9H627.8z M803.9,478.7v16v1.9v8.2H629.7    v-8.2v-1.9v-16H803.9z M629.7,577.8v-1.9v-33.8v-1.9v-23.9v-1.9v-7.8h174.3v7.8v1.9v23.9v1.9v40.5h-12.7h-1.9H629.7V577.8z     M791.2,584.4h14.5v-42.4h121.7v154.1H791.2V584.4z M805.8,540.2v-23.9h121.7v23.9H805.8z M786.5,476.9H651.9l40.5-29.9H746    L786.5,476.9z M691.8,445.1H507.9h-1.4h-29.9h-1.4h-46.9v51.5h46.9h1.4h29.9h1.4h119.9v8.2v1.9v7.8h-21.2v25.7v1.9v35.7h21.2v6.7    h161.6V698h139.9v-156v-1.9v-25.7H805.8v-7.8v-1.9v-8.2h123.5v-51.5H746.6l-19-14h1h212v281.8H507.9h-1.4h-29.9h-1.4h-58.8V431.1    h58.8h1.4h29.9h1.4h202.9L691.8,445.1z M608.4,540.2v-23.9h19.4v23.9H608.4z M627.8,542.1v33.8h-19.4v-33.8H627.8z M743.5,445.1    L743.5,445.1l-48.5,0l0,0l19-14h10.5L743.5,445.1z M716.5,429.2l2.7-2l2.7,2H716.5z M713.3,429.2H507.9h-1.4h-29.9h-1.4h-60.6    v285.5h60.6h1.4h29.9h1.4h434.5V429.2H728.6h-3.5l-4.4-3.3l1.4-0.1l2.4-1.7c0.8-0.5,1.4-1.1,2-1.8l-1.4-0.7    c-1.4,1.7-3.5,2.7-5.7,2.7c-2.6,0-4.9-1.3-6.2-3.3h236.4c0.7,0,1.3,0.6,1.3,1.3v299.3c0,0.7-0.6,1.3-1.3,1.3H507.9h-1.4h-29.9    h-1.4h-67.5c-0.7,0-1.3-0.6-1.3-1.3V422.3c0-0.7,0.6-1.3,1.3-1.3h67.5h1.4h29.9h1.4h203.3c0.7,1.2,1.6,2.3,2.8,3.2l2.3,1.7    l1.4,0.1L713.3,429.2z M506.5,851.6h-29.9V765h29.9V851.6z M725,832.3h47.8c7.9,0,14.3,6.4,14.3,14.3v5.1H570v-5.1    c0-7.9,6.4-14.3,14.3-14.3h47.8H725z M722.8,830.4h-88.6l10.8-65.4H712L722.8,830.4z M961.8,750.7c0,6.9-5.6,12.5-12.5,12.5H713.6    h-70.1H507.9h-1.4h-29.9h-1.4h-67.5c-6.9,0-12.5-5.6-12.5-12.5v-25.9h12.5h67.5h1.4h29.9h1.4h441.4h12.5V750.7z M961.8,723h-9.6    c0.2-0.4,0.3-0.8,0.3-1.3V422.3c0-1.7-1.4-3.2-3.2-3.2H712.1c-0.2-0.7-0.4-1.5-0.4-2.3c0-3.2,2-5.9,4.8-7h232.8    c6.9,0,12.5,5.6,12.5,12.5V723z"/>
		<path d="M678.6,734.7c-6.1,0-11,5-11,11c0,6.1,5,11,11,11c6.1,0,11-5,11-11C689.6,739.7,684.7,734.7,678.6,734.7z M678.6,755    c-5.1,0-9.2-4.1-9.2-9.2c0-5.1,4.1-9.2,9.2-9.2c5.1,0,9.2,4.1,9.2,9.2C687.7,750.8,683.6,755,678.6,755z"/>
		<path d="M428.4,540.2v1.9v156h46.9h1.4h29.9h1.4h84.7v-156v-1.9v-25.7h-84.7h-1.4h-29.9h-1.4h-46.9V540.2z M430.2,516.3h45.1h1.4    h29.9h1.4h82.8v23.9h-82.8h-1.4h-29.9h-1.4h-45.1V516.3z M430.2,542.1h45.1h1.4h29.9h1.4h82.8v154.1h-82.8h-1.4h-29.9h-1.4h-45.1    V542.1z"/>
		<path d="M607.5,601.7c0.5,0,0.9-0.4,0.9-0.9v-7.7h7.7c0.5,0,0.9-0.4,0.9-0.9c0-0.5-0.4-0.9-0.9-0.9h-9.5v9.5    C606.6,601.3,607,601.7,607.5,601.7z"/>
		<path d="M607.5,671.9c0.5,0,0.9-0.4,0.9-0.9v-17.5c0-0.5-0.4-0.9-0.9-0.9c-0.5,0-0.9,0.4-0.9,0.9v17.5    C606.6,671.5,607,671.9,607.5,671.9z"/>
		<path d="M607.5,636.8c0.5,0,0.9-0.4,0.9-0.9v-17.5c0-0.5-0.4-0.9-0.9-0.9c-0.5,0-0.9,0.4-0.9,0.9v17.5    C606.6,636.4,607,636.8,607.5,636.8z"/>
		<path d="M617,697.1c0-0.5-0.4-0.9-0.9-0.9h-7.7v-7.7c0-0.5-0.4-0.9-0.9-0.9c-0.5,0-0.9,0.4-0.9,0.9v9.5h9.5    C616.6,698,617,697.6,617,697.1z"/>
		<path d="M699.6,698h16.7c0.5,0,0.9-0.4,0.9-0.9c0-0.5-0.4-0.9-0.9-0.9h-16.7c-0.5,0-0.9,0.4-0.9,0.9    C698.6,697.6,699,698,699.6,698z"/>
		<path d="M632.8,698h16.7c0.5,0,0.9-0.4,0.9-0.9c0-0.5-0.4-0.9-0.9-0.9h-16.7c-0.5,0-0.9,0.4-0.9,0.9    C631.9,697.6,632.3,698,632.8,698z"/>
		<path d="M732.9,698h16.7c0.5,0,0.9-0.4,0.9-0.9c0-0.5-0.4-0.9-0.9-0.9h-16.7c-0.5,0-0.9,0.4-0.9,0.9    C732,697.6,732.4,698,732.9,698z"/>
		<path d="M666.2,698h16.7c0.5,0,0.9-0.4,0.9-0.9c0-0.5-0.4-0.9-0.9-0.9h-16.7c-0.5,0-0.9,0.4-0.9,0.9    C665.2,697.6,665.7,698,666.2,698z"/>
		<path d="M766.3,698h9.5v-9.5c0-0.5-0.4-0.9-0.9-0.9c-0.5,0-0.9,0.4-0.9,0.9v7.7h-7.7c-0.5,0-0.9,0.4-0.9,0.9    C765.4,697.6,765.8,698,766.3,698z"/>
		<path d="M774.9,617.4c-0.5,0-0.9,0.4-0.9,0.9v17.5c0,0.5,0.4,0.9,0.9,0.9c0.5,0,0.9-0.4,0.9-0.9v-17.5    C775.9,617.8,775.4,617.4,774.9,617.4z"/>
		<path d="M774.9,652.5c-0.5,0-0.9,0.4-0.9,0.9v17.5c0,0.5,0.4,0.9,0.9,0.9c0.5,0,0.9-0.4,0.9-0.9v-17.5    C775.9,652.9,775.4,652.5,774.9,652.5z"/>
		<path d="M766.3,593.1h7.7v7.7c0,0.5,0.4,0.9,0.9,0.9c0.5,0,0.9-0.4,0.9-0.9v-9.5h-9.5c-0.5,0-0.9,0.4-0.9,0.9    C765.4,592.7,765.8,593.1,766.3,593.1z"/>
		<path d="M632.8,593.1h16.7c0.5,0,0.9-0.4,0.9-0.9c0-0.5-0.4-0.9-0.9-0.9h-16.7c-0.5,0-0.9,0.4-0.9,0.9    C631.9,592.7,632.3,593.1,632.8,593.1z"/>
		<path d="M699.6,593.1h16.7c0.5,0,0.9-0.4,0.9-0.9c0-0.5-0.4-0.9-0.9-0.9h-16.7c-0.5,0-0.9,0.4-0.9,0.9    C698.6,592.7,699,593.1,699.6,593.1z"/>
		<path d="M732.9,593.1h16.7c0.5,0,0.9-0.4,0.9-0.9c0-0.5-0.4-0.9-0.9-0.9h-16.7c-0.5,0-0.9,0.4-0.9,0.9    C732,592.7,732.4,593.1,732.9,593.1z"/>
		<path d="M666.2,593.1h16.7c0.5,0,0.9-0.4,0.9-0.9c0-0.5-0.4-0.9-0.9-0.9h-16.7c-0.5,0-0.9,0.4-0.9,0.9    C665.2,592.7,665.7,593.1,666.2,593.1z"/>
	</g>
	<g>
		<polygon class="st2" points="789,853.4 568.1,853.4 568.1,853.4 140.7,853.4 140.7,886 1253.3,886 1253.3,853.4 789,853.4   "/>
		<path d="M1185.8,851.6H1168H982.8H789H568.1h-60.2h-32.6l0,0H138.9v36.2h1116.2v-36.2H1185.8z M1253.3,886H140.7v-32.6h427.4v0    H789v0h464.3V886z"/>
	</g>
	<rect x="989.1" y="242.1" class="st7" width="49.9" height="49.9"/>
	<g>
		<rect x="995.8" y="248" class="st0" width="36.3" height="36.3"/>
		<path d="M1032.8,285.1H995v-37.8h37.8V285.1z M996.5,283.6h34.8v-34.8h-34.8V283.6z"/>
	</g>
</g>
</svg>
